STARTFONT 2.1
FONT -FontForge-Bit Cell-Book-R-Normal--16-120-96-96-P-61-ISO10646-1
SIZE 12 96 96
FONTBOUNDINGBOX 13 14 -1 -3
COMMENT "Generated by fontforge, http://fontforge.sourceforge.net"
COMMENT "(c) 2018 memesbruh03 (https://memesbruh03.neocities.org/)"
STARTPROPERTIES 39
FOUNDRY "FontForge"
FAMILY_NAME "Bit Cell"
WEIGHT_NAME "Book"
SLANT "R"
SETWIDTH_NAME "Normal"
ADD_STYLE_NAME ""
PIXEL_SIZE 16
POINT_SIZE 120
RESOLUTION_X 96
RESOLUTION_Y 96
SPACING "P"
AVERAGE_WIDTH 61
CHARSET_REGISTRY "ISO10646"
CHARSET_ENCODING "1"
FONTNAME_REGISTRY ""
CHARSET_COLLECTIONS "ISO8859-2 ISO8859-5 ISO8859-7 ISO8859-9 ISO8859-4 Symbol ISO10646-1"
FONT_NAME "BitCell-Regular"
FACE_NAME "Bit Cell"
COPYRIGHT "(c) 2018 memesbruh03 (https://memesbruh03.neocities.org/)"
FONT_VERSION "06/30/2018"
FONT_ASCENT 12
FONT_DESCENT 4
UNDERLINE_POSITION -2
UNDERLINE_THICKNESS 1
X_HEIGHT 4
CAP_HEIGHT 6
RAW_ASCENT 750
RAW_DESCENT 250
NORM_SPACE 3
RELATIVE_WEIGHT 40
RELATIVE_SETWIDTH 50
SUPERSCRIPT_X 0
SUPERSCRIPT_Y 7
SUPERSCRIPT_SIZE 11
SUBSCRIPT_X 0
SUBSCRIPT_Y 2
SUBSCRIPT_SIZE 11
AVG_LOWERCASE_WIDTH 59
AVG_UPPERCASE_WIDTH 64
ENDPROPERTIES
CHARS 615
STARTCHAR space
ENCODING 32
SWIDTH 187 0
DWIDTH 3 0
BBX 1 1 0 0
BITMAP
00
ENDCHAR
STARTCHAR exclam
ENCODING 33
SWIDTH 187 0
DWIDTH 3 0
BBX 2 7 0 0
BITMAP
C0
C0
C0
C0
C0
00
C0
ENDCHAR
STARTCHAR quotedbl
ENCODING 34
SWIDTH 250 0
DWIDTH 4 0
BBX 3 2 0 5
BITMAP
A0
A0
ENDCHAR
STARTCHAR numbersign
ENCODING 35
SWIDTH 375 0
DWIDTH 6 0
BBX 5 7 0 0
BITMAP
50
F8
F8
50
F8
F8
50
ENDCHAR
STARTCHAR dollar
ENCODING 36
SWIDTH 375 0
DWIDTH 6 0
BBX 5 8 0 -1
BITMAP
50
78
D0
F0
78
58
F0
50
ENDCHAR
STARTCHAR percent
ENCODING 37
SWIDTH 437 0
DWIDTH 7 0
BBX 6 7 0 0
BITMAP
C8
D8
10
30
20
6C
4C
ENDCHAR
STARTCHAR ampersand
ENCODING 38
SWIDTH 437 0
DWIDTH 7 0
BBX 6 7 0 0
BITMAP
70
D8
70
F4
DC
DC
74
ENDCHAR
STARTCHAR quotesingle
ENCODING 39
SWIDTH 125 0
DWIDTH 2 0
BBX 1 2 0 5
BITMAP
80
80
ENDCHAR
STARTCHAR parenleft
ENCODING 40
SWIDTH 250 0
DWIDTH 4 0
BBX 3 8 0 -1
BITMAP
20
40
C0
C0
C0
C0
40
20
ENDCHAR
STARTCHAR parenright
ENCODING 41
SWIDTH 250 0
DWIDTH 4 0
BBX 3 8 0 -1
BITMAP
80
40
60
60
60
60
40
80
ENDCHAR
STARTCHAR asterisk
ENCODING 42
SWIDTH 375 0
DWIDTH 6 0
BBX 5 7 0 0
BITMAP
20
A8
F8
70
F8
A8
20
ENDCHAR
STARTCHAR plus
ENCODING 43
SWIDTH 375 0
DWIDTH 6 0
BBX 5 5 0 1
BITMAP
20
20
F8
20
20
ENDCHAR
STARTCHAR comma
ENCODING 44
SWIDTH 187 0
DWIDTH 3 0
BBX 2 3 0 -1
BITMAP
40
C0
80
ENDCHAR
STARTCHAR hyphen
ENCODING 45
SWIDTH 312 0
DWIDTH 5 0
BBX 4 1 0 3
BITMAP
F0
ENDCHAR
STARTCHAR period
ENCODING 46
SWIDTH 187 0
DWIDTH 3 0
BBX 2 2 0 0
BITMAP
C0
C0
ENDCHAR
STARTCHAR slash
ENCODING 47
SWIDTH 250 0
DWIDTH 4 0
BBX 3 7 0 0
BITMAP
20
20
60
40
C0
80
80
ENDCHAR
STARTCHAR zero
ENCODING 48
SWIDTH 375 0
DWIDTH 6 0
BBX 5 7 0 0
BITMAP
70
D8
D8
D8
D8
D8
70
ENDCHAR
STARTCHAR one
ENCODING 49
SWIDTH 250 0
DWIDTH 4 0
BBX 3 7 0 0
BITMAP
60
E0
60
60
60
60
60
ENDCHAR
STARTCHAR two
ENCODING 50
SWIDTH 375 0
DWIDTH 6 0
BBX 5 7 0 0
BITMAP
F0
18
18
70
C0
C0
F8
ENDCHAR
STARTCHAR three
ENCODING 51
SWIDTH 375 0
DWIDTH 6 0
BBX 5 7 0 0
BITMAP
F0
18
18
70
18
18
F0
ENDCHAR
STARTCHAR four
ENCODING 52
SWIDTH 375 0
DWIDTH 6 0
BBX 5 7 0 0
BITMAP
18
38
58
98
F8
18
18
ENDCHAR
STARTCHAR five
ENCODING 53
SWIDTH 375 0
DWIDTH 6 0
BBX 5 7 0 0
BITMAP
F0
80
F0
18
18
18
F0
ENDCHAR
STARTCHAR six
ENCODING 54
SWIDTH 375 0
DWIDTH 6 0
BBX 5 7 0 0
BITMAP
70
C0
F0
D8
D8
D8
70
ENDCHAR
STARTCHAR seven
ENCODING 55
SWIDTH 375 0
DWIDTH 6 0
BBX 5 7 0 0
BITMAP
F8
18
30
30
60
60
60
ENDCHAR
STARTCHAR eight
ENCODING 56
SWIDTH 375 0
DWIDTH 6 0
BBX 5 7 0 0
BITMAP
70
D8
D8
70
D8
D8
70
ENDCHAR
STARTCHAR nine
ENCODING 57
SWIDTH 375 0
DWIDTH 6 0
BBX 5 7 0 0
BITMAP
70
D8
D8
D8
78
18
70
ENDCHAR
STARTCHAR colon
ENCODING 58
SWIDTH 187 0
DWIDTH 3 0
BBX 2 5 0 0
BITMAP
C0
C0
00
C0
C0
ENDCHAR
STARTCHAR semicolon
ENCODING 59
SWIDTH 187 0
DWIDTH 3 0
BBX 2 6 0 -1
BITMAP
C0
C0
00
40
C0
80
ENDCHAR
STARTCHAR less
ENCODING 60
SWIDTH 312 0
DWIDTH 5 0
BBX 4 7 0 0
BITMAP
10
30
60
C0
60
30
10
ENDCHAR
STARTCHAR equal
ENCODING 61
SWIDTH 312 0
DWIDTH 5 0
BBX 4 3 0 1
BITMAP
F0
00
F0
ENDCHAR
STARTCHAR greater
ENCODING 62
SWIDTH 312 0
DWIDTH 5 0
BBX 4 7 0 0
BITMAP
80
C0
60
30
60
C0
80
ENDCHAR
STARTCHAR question
ENCODING 63
SWIDTH 375 0
DWIDTH 6 0
BBX 5 7 0 0
BITMAP
F0
18
30
60
60
00
60
ENDCHAR
STARTCHAR at
ENCODING 64
SWIDTH 437 0
DWIDTH 7 0
BBX 6 7 0 -1
BITMAP
78
CC
FC
DC
FC
C0
78
ENDCHAR
STARTCHAR A
ENCODING 65
SWIDTH 375 0
DWIDTH 6 0
BBX 5 7 0 0
BITMAP
70
D8
D8
D8
F8
D8
D8
ENDCHAR
STARTCHAR B
ENCODING 66
SWIDTH 375 0
DWIDTH 6 0
BBX 5 7 0 0
BITMAP
F0
D8
F0
D8
D8
D8
F0
ENDCHAR
STARTCHAR C
ENCODING 67
SWIDTH 375 0
DWIDTH 6 0
BBX 5 7 0 0
BITMAP
78
C0
C0
C0
C0
C0
78
ENDCHAR
STARTCHAR D
ENCODING 68
SWIDTH 375 0
DWIDTH 6 0
BBX 5 7 0 0
BITMAP
F0
D8
D8
D8
D8
D8
F0
ENDCHAR
STARTCHAR E
ENCODING 69
SWIDTH 375 0
DWIDTH 6 0
BBX 5 7 0 0
BITMAP
F8
C0
F0
C0
C0
C0
F8
ENDCHAR
STARTCHAR F
ENCODING 70
SWIDTH 375 0
DWIDTH 6 0
BBX 5 7 0 0
BITMAP
F8
C0
F0
C0
C0
C0
C0
ENDCHAR
STARTCHAR G
ENCODING 71
SWIDTH 375 0
DWIDTH 6 0
BBX 5 7 0 0
BITMAP
70
C0
C0
D8
D8
D8
78
ENDCHAR
STARTCHAR H
ENCODING 72
SWIDTH 375 0
DWIDTH 6 0
BBX 5 7 0 0
BITMAP
D8
D8
F8
D8
D8
D8
D8
ENDCHAR
STARTCHAR I
ENCODING 73
SWIDTH 187 0
DWIDTH 3 0
BBX 2 7 0 0
BITMAP
C0
C0
C0
C0
C0
C0
C0
ENDCHAR
STARTCHAR J
ENCODING 74
SWIDTH 312 0
DWIDTH 5 0
BBX 4 7 0 0
BITMAP
30
30
30
30
30
30
E0
ENDCHAR
STARTCHAR K
ENCODING 75
SWIDTH 437 0
DWIDTH 7 0
BBX 6 7 0 0
BITMAP
CC
D8
F0
E0
F0
D8
CC
ENDCHAR
STARTCHAR L
ENCODING 76
SWIDTH 312 0
DWIDTH 5 0
BBX 4 7 0 0
BITMAP
C0
C0
C0
C0
C0
C0
F0
ENDCHAR
STARTCHAR M
ENCODING 77
SWIDTH 500 0
DWIDTH 8 0
BBX 7 7 0 0
BITMAP
82
C6
EE
FE
D6
C6
C6
ENDCHAR
STARTCHAR N
ENCODING 78
SWIDTH 437 0
DWIDTH 7 0
BBX 6 7 0 0
BITMAP
8C
CC
EC
FC
DC
CC
C4
ENDCHAR
STARTCHAR O
ENCODING 79
SWIDTH 437 0
DWIDTH 7 0
BBX 6 7 0 0
BITMAP
78
CC
CC
CC
CC
CC
78
ENDCHAR
STARTCHAR P
ENCODING 80
SWIDTH 375 0
DWIDTH 6 0
BBX 5 7 0 0
BITMAP
F0
D8
D8
D8
F0
C0
C0
ENDCHAR
STARTCHAR Q
ENCODING 81
SWIDTH 437 0
DWIDTH 7 0
BBX 6 8 0 -1
BITMAP
78
CC
CC
CC
CC
DC
78
0C
ENDCHAR
STARTCHAR R
ENCODING 82
SWIDTH 375 0
DWIDTH 6 0
BBX 5 7 0 0
BITMAP
F0
D8
D8
D8
F0
D0
D8
ENDCHAR
STARTCHAR S
ENCODING 83
SWIDTH 312 0
DWIDTH 5 0
BBX 4 7 0 0
BITMAP
70
C0
C0
60
30
30
E0
ENDCHAR
STARTCHAR T
ENCODING 84
SWIDTH 437 0
DWIDTH 7 0
BBX 6 7 0 0
BITMAP
FC
30
30
30
30
30
30
ENDCHAR
STARTCHAR U
ENCODING 85
SWIDTH 375 0
DWIDTH 6 0
BBX 5 7 0 0
BITMAP
D8
D8
D8
D8
D8
D8
70
ENDCHAR
STARTCHAR V
ENCODING 86
SWIDTH 437 0
DWIDTH 7 0
BBX 6 7 0 0
BITMAP
CC
CC
CC
78
78
30
30
ENDCHAR
STARTCHAR W
ENCODING 87
SWIDTH 500 0
DWIDTH 8 0
BBX 7 7 0 0
BITMAP
C6
C6
D6
FE
7C
7C
6C
ENDCHAR
STARTCHAR X
ENCODING 88
SWIDTH 437 0
DWIDTH 7 0
BBX 6 7 0 0
BITMAP
CC
CC
78
30
78
CC
CC
ENDCHAR
STARTCHAR Y
ENCODING 89
SWIDTH 437 0
DWIDTH 7 0
BBX 6 7 0 0
BITMAP
CC
CC
78
30
30
30
30
ENDCHAR
STARTCHAR Z
ENCODING 90
SWIDTH 375 0
DWIDTH 6 0
BBX 5 7 0 0
BITMAP
F8
18
38
70
E0
C0
F8
ENDCHAR
STARTCHAR bracketleft
ENCODING 91
SWIDTH 250 0
DWIDTH 4 0
BBX 3 8 0 -1
BITMAP
E0
C0
C0
C0
C0
C0
C0
E0
ENDCHAR
STARTCHAR backslash
ENCODING 92
SWIDTH 250 0
DWIDTH 4 0
BBX 3 7 0 0
BITMAP
80
80
C0
40
60
20
20
ENDCHAR
STARTCHAR bracketright
ENCODING 93
SWIDTH 250 0
DWIDTH 4 0
BBX 3 8 0 -1
BITMAP
E0
60
60
60
60
60
60
E0
ENDCHAR
STARTCHAR asciicircum
ENCODING 94
SWIDTH 250 0
DWIDTH 4 0
BBX 3 3 0 4
BITMAP
40
E0
A0
ENDCHAR
STARTCHAR underscore
ENCODING 95
SWIDTH 437 0
DWIDTH 7 0
BBX 6 1 0 0
BITMAP
FC
ENDCHAR
STARTCHAR grave
ENCODING 96
SWIDTH 187 0
DWIDTH 3 0
BBX 2 2 0 5
BITMAP
80
40
ENDCHAR
STARTCHAR a
ENCODING 97
SWIDTH 375 0
DWIDTH 6 0
BBX 5 5 0 0
BITMAP
70
18
78
D8
78
ENDCHAR
STARTCHAR b
ENCODING 98
SWIDTH 375 0
DWIDTH 6 0
BBX 5 7 0 0
BITMAP
C0
C0
F0
D8
D8
D8
F0
ENDCHAR
STARTCHAR c
ENCODING 99
SWIDTH 312 0
DWIDTH 5 0
BBX 4 5 0 0
BITMAP
70
C0
C0
C0
70
ENDCHAR
STARTCHAR d
ENCODING 100
SWIDTH 375 0
DWIDTH 6 0
BBX 5 7 0 0
BITMAP
18
18
78
D8
D8
D8
78
ENDCHAR
STARTCHAR e
ENCODING 101
SWIDTH 375 0
DWIDTH 6 0
BBX 5 5 0 0
BITMAP
70
D8
F8
C0
78
ENDCHAR
STARTCHAR f
ENCODING 102
SWIDTH 250 0
DWIDTH 4 0
BBX 3 7 0 0
BITMAP
60
C0
E0
C0
C0
C0
C0
ENDCHAR
STARTCHAR g
ENCODING 103
SWIDTH 375 0
DWIDTH 6 0
BBX 5 6 0 -1
BITMAP
78
D8
D8
78
18
70
ENDCHAR
STARTCHAR h
ENCODING 104
SWIDTH 375 0
DWIDTH 6 0
BBX 5 7 0 0
BITMAP
C0
C0
F0
D8
D8
D8
D8
ENDCHAR
STARTCHAR i
ENCODING 105
SWIDTH 187 0
DWIDTH 3 0
BBX 2 7 0 0
BITMAP
C0
00
C0
C0
C0
C0
C0
ENDCHAR
STARTCHAR j
ENCODING 106
SWIDTH 250 0
DWIDTH 4 0
BBX 3 8 0 -1
BITMAP
60
00
60
60
60
60
60
C0
ENDCHAR
STARTCHAR k
ENCODING 107
SWIDTH 375 0
DWIDTH 6 0
BBX 5 7 0 0
BITMAP
C0
C0
D8
F0
E0
F0
D8
ENDCHAR
STARTCHAR l
ENCODING 108
SWIDTH 187 0
DWIDTH 3 0
BBX 2 7 0 0
BITMAP
C0
C0
C0
C0
C0
C0
C0
ENDCHAR
STARTCHAR m
ENCODING 109
SWIDTH 562 0
DWIDTH 9 0
BBX 8 5 0 0
BITMAP
FE
DB
DB
DB
DB
ENDCHAR
STARTCHAR n
ENCODING 110
SWIDTH 375 0
DWIDTH 6 0
BBX 5 5 0 0
BITMAP
F0
D8
D8
D8
D8
ENDCHAR
STARTCHAR o
ENCODING 111
SWIDTH 375 0
DWIDTH 6 0
BBX 5 5 0 0
BITMAP
70
D8
D8
D8
70
ENDCHAR
STARTCHAR p
ENCODING 112
SWIDTH 375 0
DWIDTH 6 0
BBX 5 6 0 -1
BITMAP
F0
D8
D8
F0
C0
C0
ENDCHAR
STARTCHAR q
ENCODING 113
SWIDTH 375 0
DWIDTH 6 0
BBX 5 6 0 -1
BITMAP
78
D8
D8
78
18
18
ENDCHAR
STARTCHAR r
ENCODING 114
SWIDTH 312 0
DWIDTH 5 0
BBX 4 5 0 0
BITMAP
D0
F0
C0
C0
C0
ENDCHAR
STARTCHAR s
ENCODING 115
SWIDTH 312 0
DWIDTH 5 0
BBX 4 5 0 0
BITMAP
70
C0
F0
30
E0
ENDCHAR
STARTCHAR t
ENCODING 116
SWIDTH 250 0
DWIDTH 4 0
BBX 3 7 0 0
BITMAP
C0
C0
E0
C0
C0
C0
60
ENDCHAR
STARTCHAR u
ENCODING 117
SWIDTH 375 0
DWIDTH 6 0
BBX 5 5 0 0
BITMAP
D8
D8
D8
D8
78
ENDCHAR
STARTCHAR v
ENCODING 118
SWIDTH 375 0
DWIDTH 6 0
BBX 5 5 0 0
BITMAP
D8
D8
70
70
20
ENDCHAR
STARTCHAR w
ENCODING 119
SWIDTH 500 0
DWIDTH 8 0
BBX 7 5 0 0
BITMAP
C6
D6
D6
7C
6C
ENDCHAR
STARTCHAR x
ENCODING 120
SWIDTH 375 0
DWIDTH 6 0
BBX 5 5 0 0
BITMAP
D8
D8
70
D8
D8
ENDCHAR
STARTCHAR y
ENCODING 121
SWIDTH 375 0
DWIDTH 6 0
BBX 5 6 0 -1
BITMAP
D8
D8
D8
78
18
70
ENDCHAR
STARTCHAR z
ENCODING 122
SWIDTH 375 0
DWIDTH 6 0
BBX 5 5 0 0
BITMAP
F8
30
60
C0
F8
ENDCHAR
STARTCHAR braceleft
ENCODING 123
SWIDTH 312 0
DWIDTH 5 0
BBX 4 8 0 -1
BITMAP
30
60
60
C0
60
60
60
30
ENDCHAR
STARTCHAR bar
ENCODING 124
SWIDTH 125 0
DWIDTH 2 0
BBX 1 10 0 -2
BITMAP
80
80
80
80
80
80
80
80
80
80
ENDCHAR
STARTCHAR braceright
ENCODING 125
SWIDTH 312 0
DWIDTH 5 0
BBX 4 8 0 -1
BITMAP
C0
60
60
30
60
60
60
C0
ENDCHAR
STARTCHAR asciitilde
ENCODING 126
SWIDTH 375 0
DWIDTH 6 0
BBX 5 2 0 5
BITMAP
68
B0
ENDCHAR
STARTCHAR nonbreakingspace
ENCODING 160
SWIDTH 312 0
DWIDTH 5 0
BBX 1 1 0 0
BITMAP
00
ENDCHAR
STARTCHAR exclamdown
ENCODING 161
SWIDTH 187 0
DWIDTH 3 0
BBX 2 7 0 -1
BITMAP
C0
00
C0
C0
C0
C0
C0
ENDCHAR
STARTCHAR cent
ENCODING 162
SWIDTH 312 0
DWIDTH 5 0
BBX 4 7 0 -1
BITMAP
20
70
C0
C0
C0
70
40
ENDCHAR
STARTCHAR sterling
ENCODING 163
SWIDTH 375 0
DWIDTH 6 0
BBX 5 7 0 0
BITMAP
38
60
60
F0
60
60
F8
ENDCHAR
STARTCHAR currency
ENCODING 164
SWIDTH 375 0
DWIDTH 6 0
BBX 5 6 0 0
BITMAP
88
70
D8
D8
70
88
ENDCHAR
STARTCHAR yen
ENCODING 165
SWIDTH 437 0
DWIDTH 7 0
BBX 6 7 0 0
BITMAP
CC
78
FC
30
FC
30
30
ENDCHAR
STARTCHAR brokenbar
ENCODING 166
SWIDTH 125 0
DWIDTH 2 0
BBX 1 10 0 -2
BITMAP
80
80
80
80
00
00
80
80
80
80
ENDCHAR
STARTCHAR section
ENCODING 167
SWIDTH 312 0
DWIDTH 5 0
BBX 4 8 0 -1
BITMAP
60
D0
E0
B0
D0
70
B0
60
ENDCHAR
STARTCHAR dieresis
ENCODING 168
SWIDTH 250 0
DWIDTH 4 0
BBX 3 1 0 6
BITMAP
A0
ENDCHAR
STARTCHAR copyright
ENCODING 169
SWIDTH 562 0
DWIDTH 9 0
BBX 8 8 0 -1
BITMAP
3C
42
99
A1
A1
99
42
3C
ENDCHAR
STARTCHAR ordfeminine
ENCODING 170
SWIDTH 375 0
DWIDTH 6 0
BBX 5 7 0 0
BITMAP
70
18
78
D8
78
00
F8
ENDCHAR
STARTCHAR guillemotleft
ENCODING 171
SWIDTH 500 0
DWIDTH 8 0
BBX 7 5 0 1
BITMAP
36
6C
D8
6C
36
ENDCHAR
STARTCHAR logicalnot
ENCODING 172
SWIDTH 375 0
DWIDTH 6 0
BBX 5 3 0 2
BITMAP
F8
18
18
ENDCHAR
STARTCHAR registered
ENCODING 174
SWIDTH 562 0
DWIDTH 9 0
BBX 8 8 0 -1
BITMAP
3C
42
B9
A5
B9
A5
42
3C
ENDCHAR
STARTCHAR macron
ENCODING 175
SWIDTH 437 0
DWIDTH 7 0
BBX 6 1 0 6
BITMAP
FC
ENDCHAR
STARTCHAR degree
ENCODING 176
SWIDTH 250 0
DWIDTH 4 0
BBX 3 3 0 4
BITMAP
40
A0
40
ENDCHAR
STARTCHAR plusminus
ENCODING 177
SWIDTH 375 0
DWIDTH 6 0
BBX 5 7 0 0
BITMAP
20
20
F8
20
20
00
F8
ENDCHAR
STARTCHAR twosuperior
ENCODING 178
SWIDTH 375 0
DWIDTH 6 0
BBX 5 5 0 2
BITMAP
F0
18
70
C0
F8
ENDCHAR
STARTCHAR threesuperior
ENCODING 179
SWIDTH 375 0
DWIDTH 6 0
BBX 5 5 0 2
BITMAP
F0
18
70
18
F0
ENDCHAR
STARTCHAR acute
ENCODING 180
SWIDTH 187 0
DWIDTH 3 0
BBX 2 2 0 5
BITMAP
40
80
ENDCHAR
STARTCHAR mu
ENCODING 181
SWIDTH 375 0
DWIDTH 6 0
BBX 5 6 0 -1
BITMAP
D8
D8
D8
F0
C0
C0
ENDCHAR
STARTCHAR paragraph
ENCODING 182
SWIDTH 437 0
DWIDTH 7 0
BBX 6 7 0 0
BITMAP
7C
E8
E8
68
28
28
28
ENDCHAR
STARTCHAR periodcentered
ENCODING 183
SWIDTH 125 0
DWIDTH 2 0
BBX 1 1 0 3
BITMAP
80
ENDCHAR
STARTCHAR cedilla
ENCODING 184
SWIDTH 187 0
DWIDTH 3 0
BBX 2 2 0 -2
BITMAP
40
80
ENDCHAR
STARTCHAR onesuperior
ENCODING 185
SWIDTH 250 0
DWIDTH 4 0
BBX 3 5 0 2
BITMAP
60
E0
60
60
60
ENDCHAR
STARTCHAR ordmasculine
ENCODING 186
SWIDTH 375 0
DWIDTH 6 0
BBX 5 7 0 0
BITMAP
70
D8
D8
D8
70
00
F8
ENDCHAR
STARTCHAR guillemotright
ENCODING 187
SWIDTH 500 0
DWIDTH 8 0
BBX 7 5 0 1
BITMAP
D8
6C
36
6C
D8
ENDCHAR
STARTCHAR onequarter
ENCODING 188
SWIDTH 750 0
DWIDTH 12 0
BBX 11 7 0 0
BITMAP
6200
E600
65E0
6F60
6B60
1BE0
1060
ENDCHAR
STARTCHAR onehalf
ENCODING 189
SWIDTH 750 0
DWIDTH 12 0
BBX 11 7 0 0
BITMAP
6200
E600
67C0
6C60
69C0
1B00
13E0
ENDCHAR
STARTCHAR threequarters
ENCODING 190
SWIDTH 812 0
DWIDTH 13 0
BBX 12 7 0 0
BITMAP
F100
1B00
72F0
1FB0
F5B0
0DF0
0830
ENDCHAR
STARTCHAR questiondown
ENCODING 191
SWIDTH 375 0
DWIDTH 6 0
BBX 5 7 0 -1
BITMAP
30
00
30
30
60
C0
78
ENDCHAR
STARTCHAR Agrave
ENCODING 192
SWIDTH 375 0
DWIDTH 6 0
BBX 5 10 0 0
BITMAP
40
20
00
70
D8
D8
D8
F8
D8
D8
ENDCHAR
STARTCHAR Aacute
ENCODING 193
SWIDTH 375 0
DWIDTH 6 0
BBX 5 10 0 0
BITMAP
10
20
00
70
D8
D8
D8
F8
D8
D8
ENDCHAR
STARTCHAR Acircumflex
ENCODING 194
SWIDTH 375 0
DWIDTH 6 0
BBX 5 10 0 0
BITMAP
20
50
00
70
D8
D8
D8
F8
D8
D8
ENDCHAR
STARTCHAR Atilde
ENCODING 195
SWIDTH 375 0
DWIDTH 6 0
BBX 5 10 0 0
BITMAP
68
B0
00
70
D8
D8
D8
F8
D8
D8
ENDCHAR
STARTCHAR Adieresis
ENCODING 196
SWIDTH 375 0
DWIDTH 6 0
BBX 5 9 0 0
BITMAP
50
00
70
D8
D8
D8
F8
D8
D8
ENDCHAR
STARTCHAR Aring
ENCODING 197
SWIDTH 375 0
DWIDTH 6 0
BBX 5 9 0 0
BITMAP
20
50
70
D8
D8
D8
F8
D8
D8
ENDCHAR
STARTCHAR AE
ENCODING 198
SWIDTH 562 0
DWIDTH 9 0
BBX 8 7 0 0
BITMAP
7F
D8
DE
D8
F8
D8
DF
ENDCHAR
STARTCHAR Ccedilla
ENCODING 199
SWIDTH 375 0
DWIDTH 6 0
BBX 5 9 0 -2
BITMAP
78
C0
C0
C0
C0
C0
78
20
40
ENDCHAR
STARTCHAR Egrave
ENCODING 200
SWIDTH 375 0
DWIDTH 6 0
BBX 5 10 0 0
BITMAP
40
20
00
F8
C0
F0
C0
C0
C0
F8
ENDCHAR
STARTCHAR Eacute
ENCODING 201
SWIDTH 375 0
DWIDTH 6 0
BBX 5 10 0 0
BITMAP
10
20
00
F8
C0
F0
C0
C0
C0
F8
ENDCHAR
STARTCHAR Ecircumflex
ENCODING 202
SWIDTH 375 0
DWIDTH 6 0
BBX 5 10 0 0
BITMAP
20
50
00
F8
C0
F0
C0
C0
C0
F8
ENDCHAR
STARTCHAR Edieresis
ENCODING 203
SWIDTH 375 0
DWIDTH 6 0
BBX 5 9 0 0
BITMAP
50
00
F8
C0
F0
C0
C0
C0
F8
ENDCHAR
STARTCHAR Igrave
ENCODING 204
SWIDTH 187 0
DWIDTH 3 0
BBX 2 10 0 0
BITMAP
80
40
00
C0
C0
C0
C0
C0
C0
C0
ENDCHAR
STARTCHAR Iacute
ENCODING 205
SWIDTH 187 0
DWIDTH 3 0
BBX 2 10 0 0
BITMAP
40
80
00
C0
C0
C0
C0
C0
C0
C0
ENDCHAR
STARTCHAR Icircumflex
ENCODING 206
SWIDTH 187 0
DWIDTH 3 0
BBX 4 10 -1 0
BITMAP
60
90
00
60
60
60
60
60
60
60
ENDCHAR
STARTCHAR Idieresis
ENCODING 207
SWIDTH 187 0
DWIDTH 3 0
BBX 4 9 -1 0
BITMAP
90
00
60
60
60
60
60
60
60
ENDCHAR
STARTCHAR Eth
ENCODING 208
SWIDTH 437 0
DWIDTH 7 0
BBX 6 7 0 0
BITMAP
78
6C
6C
FC
6C
6C
78
ENDCHAR
STARTCHAR Ntilde
ENCODING 209
SWIDTH 437 0
DWIDTH 7 0
BBX 6 10 0 0
BITMAP
28
50
00
8C
CC
EC
FC
DC
CC
C4
ENDCHAR
STARTCHAR Ograve
ENCODING 210
SWIDTH 437 0
DWIDTH 7 0
BBX 6 10 0 0
BITMAP
20
10
00
78
CC
CC
CC
CC
CC
78
ENDCHAR
STARTCHAR Oacute
ENCODING 211
SWIDTH 437 0
DWIDTH 7 0
BBX 6 10 0 0
BITMAP
10
20
00
78
CC
CC
CC
CC
CC
78
ENDCHAR
STARTCHAR Ocircumflex
ENCODING 212
SWIDTH 437 0
DWIDTH 7 0
BBX 6 10 0 0
BITMAP
30
48
00
78
CC
CC
CC
CC
CC
78
ENDCHAR
STARTCHAR Otilde
ENCODING 213
SWIDTH 437 0
DWIDTH 7 0
BBX 6 10 0 0
BITMAP
28
50
00
78
CC
CC
CC
CC
CC
78
ENDCHAR
STARTCHAR Odieresis
ENCODING 214
SWIDTH 437 0
DWIDTH 7 0
BBX 6 9 0 0
BITMAP
48
00
78
CC
CC
CC
CC
CC
78
ENDCHAR
STARTCHAR multiply
ENCODING 215
SWIDTH 375 0
DWIDTH 6 0
BBX 5 5 0 1
BITMAP
88
50
20
50
88
ENDCHAR
STARTCHAR Oslash
ENCODING 216
SWIDTH 437 0
DWIDTH 7 0
BBX 6 7 0 0
BITMAP
74
C8
DC
FC
EC
4C
B8
ENDCHAR
STARTCHAR Ugrave
ENCODING 217
SWIDTH 375 0
DWIDTH 6 0
BBX 5 10 0 0
BITMAP
40
20
00
D8
D8
D8
D8
D8
D8
70
ENDCHAR
STARTCHAR Uacute
ENCODING 218
SWIDTH 375 0
DWIDTH 6 0
BBX 5 10 0 0
BITMAP
10
20
00
D8
D8
D8
D8
D8
D8
70
ENDCHAR
STARTCHAR Ucircumflex
ENCODING 219
SWIDTH 375 0
DWIDTH 6 0
BBX 5 10 0 0
BITMAP
20
50
00
D8
D8
D8
D8
D8
D8
70
ENDCHAR
STARTCHAR Udieresis
ENCODING 220
SWIDTH 375 0
DWIDTH 6 0
BBX 5 9 0 0
BITMAP
50
00
D8
D8
D8
D8
D8
D8
70
ENDCHAR
STARTCHAR Yacute
ENCODING 221
SWIDTH 437 0
DWIDTH 7 0
BBX 6 10 0 0
BITMAP
10
20
00
CC
CC
78
30
30
30
30
ENDCHAR
STARTCHAR Thorn
ENCODING 222
SWIDTH 375 0
DWIDTH 6 0
BBX 5 7 0 0
BITMAP
C0
F0
D8
D8
D8
F0
C0
ENDCHAR
STARTCHAR germandbls
ENCODING 223
SWIDTH 375 0
DWIDTH 6 0
BBX 5 8 0 -1
BITMAP
70
D8
F0
D8
D8
D8
D0
C0
ENDCHAR
STARTCHAR agrave
ENCODING 224
SWIDTH 375 0
DWIDTH 6 0
BBX 5 8 0 0
BITMAP
40
20
00
70
18
78
D8
78
ENDCHAR
STARTCHAR aacute
ENCODING 225
SWIDTH 375 0
DWIDTH 6 0
BBX 5 8 0 0
BITMAP
10
20
00
70
18
78
D8
78
ENDCHAR
STARTCHAR acircumflex
ENCODING 226
SWIDTH 375 0
DWIDTH 6 0
BBX 5 8 0 0
BITMAP
20
50
00
70
18
78
D8
78
ENDCHAR
STARTCHAR atilde
ENCODING 227
SWIDTH 375 0
DWIDTH 6 0
BBX 5 8 0 0
BITMAP
68
B0
00
70
18
78
D8
78
ENDCHAR
STARTCHAR adieresis
ENCODING 228
SWIDTH 375 0
DWIDTH 6 0
BBX 5 7 0 0
BITMAP
50
00
70
18
78
D8
78
ENDCHAR
STARTCHAR aring
ENCODING 229
SWIDTH 375 0
DWIDTH 6 0
BBX 5 7 0 0
BITMAP
20
50
70
18
78
D8
78
ENDCHAR
STARTCHAR ae
ENCODING 230
SWIDTH 562 0
DWIDTH 9 0
BBX 8 5 0 0
BITMAP
7E
1B
7F
D8
7E
ENDCHAR
STARTCHAR ccedilla
ENCODING 231
SWIDTH 312 0
DWIDTH 5 0
BBX 4 7 0 -2
BITMAP
70
C0
C0
C0
70
20
40
ENDCHAR
STARTCHAR egrave
ENCODING 232
SWIDTH 375 0
DWIDTH 6 0
BBX 5 8 0 0
BITMAP
40
20
00
70
D8
F8
C0
78
ENDCHAR
STARTCHAR eacute
ENCODING 233
SWIDTH 375 0
DWIDTH 6 0
BBX 5 8 0 0
BITMAP
10
20
00
70
D8
F8
C0
78
ENDCHAR
STARTCHAR ecircumflex
ENCODING 234
SWIDTH 375 0
DWIDTH 6 0
BBX 5 8 0 0
BITMAP
20
50
00
70
D8
F8
C0
78
ENDCHAR
STARTCHAR edieresis
ENCODING 235
SWIDTH 375 0
DWIDTH 6 0
BBX 5 7 0 0
BITMAP
50
00
70
D8
F8
C0
78
ENDCHAR
STARTCHAR igrave
ENCODING 236
SWIDTH 187 0
DWIDTH 3 0
BBX 2 8 0 0
BITMAP
80
40
00
C0
C0
C0
C0
C0
ENDCHAR
STARTCHAR iacute
ENCODING 237
SWIDTH 187 0
DWIDTH 3 0
BBX 2 8 0 0
BITMAP
40
80
00
C0
C0
C0
C0
C0
ENDCHAR
STARTCHAR icircumflex
ENCODING 238
SWIDTH 187 0
DWIDTH 3 0
BBX 4 8 -1 0
BITMAP
60
90
00
60
60
60
60
60
ENDCHAR
STARTCHAR idieresis
ENCODING 239
SWIDTH 187 0
DWIDTH 3 0
BBX 4 7 -1 0
BITMAP
90
00
60
60
60
60
60
ENDCHAR
STARTCHAR eth
ENCODING 240
SWIDTH 375 0
DWIDTH 6 0
BBX 6 7 0 0
BITMAP
18
3C
18
78
D8
D8
78
ENDCHAR
STARTCHAR ntilde
ENCODING 241
SWIDTH 375 0
DWIDTH 6 0
BBX 5 8 0 0
BITMAP
68
B0
00
F0
D8
D8
D8
D8
ENDCHAR
STARTCHAR ograve
ENCODING 242
SWIDTH 375 0
DWIDTH 6 0
BBX 5 8 0 0
BITMAP
40
20
00
70
D8
D8
D8
70
ENDCHAR
STARTCHAR oacute
ENCODING 243
SWIDTH 375 0
DWIDTH 6 0
BBX 5 8 0 0
BITMAP
10
20
00
70
D8
D8
D8
70
ENDCHAR
STARTCHAR ocircumflex
ENCODING 244
SWIDTH 375 0
DWIDTH 6 0
BBX 5 8 0 0
BITMAP
20
50
00
70
D8
D8
D8
70
ENDCHAR
STARTCHAR otilde
ENCODING 245
SWIDTH 375 0
DWIDTH 6 0
BBX 5 8 0 0
BITMAP
68
B0
00
70
D8
D8
D8
70
ENDCHAR
STARTCHAR odieresis
ENCODING 246
SWIDTH 375 0
DWIDTH 6 0
BBX 5 7 0 0
BITMAP
50
00
70
D8
D8
D8
70
ENDCHAR
STARTCHAR divide
ENCODING 247
SWIDTH 375 0
DWIDTH 6 0
BBX 5 5 0 1
BITMAP
20
00
F8
00
20
ENDCHAR
STARTCHAR oslash
ENCODING 248
SWIDTH 375 0
DWIDTH 6 0
BBX 5 5 0 0
BITMAP
68
D0
F8
58
B0
ENDCHAR
STARTCHAR ugrave
ENCODING 249
SWIDTH 375 0
DWIDTH 6 0
BBX 5 8 0 0
BITMAP
40
20
00
D8
D8
D8
D8
78
ENDCHAR
STARTCHAR uacute
ENCODING 250
SWIDTH 375 0
DWIDTH 6 0
BBX 5 8 0 0
BITMAP
10
20
00
D8
D8
D8
D8
78
ENDCHAR
STARTCHAR ucircumflex
ENCODING 251
SWIDTH 375 0
DWIDTH 6 0
BBX 5 8 0 0
BITMAP
20
50
00
D8
D8
D8
D8
78
ENDCHAR
STARTCHAR udieresis
ENCODING 252
SWIDTH 375 0
DWIDTH 6 0
BBX 5 7 0 0
BITMAP
50
00
D8
D8
D8
D8
78
ENDCHAR
STARTCHAR yacute
ENCODING 253
SWIDTH 375 0
DWIDTH 6 0
BBX 5 9 0 -1
BITMAP
10
20
00
D8
D8
D8
78
18
70
ENDCHAR
STARTCHAR thorn
ENCODING 254
SWIDTH 375 0
DWIDTH 6 0
BBX 5 9 0 -2
BITMAP
C0
C0
F0
D8
D8
D8
F0
C0
C0
ENDCHAR
STARTCHAR ydieresis
ENCODING 255
SWIDTH 375 0
DWIDTH 6 0
BBX 5 8 0 -1
BITMAP
50
00
D8
D8
D8
78
18
70
ENDCHAR
STARTCHAR Amacron
ENCODING 256
SWIDTH 375 0
DWIDTH 6 0
BBX 5 9 0 0
BITMAP
70
00
70
D8
D8
D8
F8
D8
D8
ENDCHAR
STARTCHAR amacron
ENCODING 257
SWIDTH 375 0
DWIDTH 6 0
BBX 5 7 0 0
BITMAP
70
00
70
18
78
D8
78
ENDCHAR
STARTCHAR Abreve
ENCODING 258
SWIDTH 375 0
DWIDTH 6 0
BBX 5 10 0 0
BITMAP
88
70
00
70
D8
D8
D8
F8
D8
D8
ENDCHAR
STARTCHAR abreve
ENCODING 259
SWIDTH 375 0
DWIDTH 6 0
BBX 5 8 0 0
BITMAP
88
70
00
70
18
78
D8
78
ENDCHAR
STARTCHAR Aogonek
ENCODING 260
SWIDTH 375 0
DWIDTH 6 0
BBX 5 9 0 -2
BITMAP
70
D8
D8
D8
F8
D8
D8
10
08
ENDCHAR
STARTCHAR aogonek
ENCODING 261
SWIDTH 375 0
DWIDTH 6 0
BBX 5 7 0 -2
BITMAP
70
18
78
D8
78
20
10
ENDCHAR
STARTCHAR Cacute
ENCODING 262
SWIDTH 375 0
DWIDTH 6 0
BBX 5 10 0 0
BITMAP
10
20
00
78
C0
C0
C0
C0
C0
78
ENDCHAR
STARTCHAR cacute
ENCODING 263
SWIDTH 312 0
DWIDTH 5 0
BBX 4 8 0 0
BITMAP
10
20
00
70
C0
C0
C0
70
ENDCHAR
STARTCHAR Ccircumflex
ENCODING 264
SWIDTH 375 0
DWIDTH 6 0
BBX 5 10 0 0
BITMAP
20
50
00
78
C0
C0
C0
C0
C0
78
ENDCHAR
STARTCHAR ccircumflex
ENCODING 265
SWIDTH 312 0
DWIDTH 5 0
BBX 4 8 0 0
BITMAP
20
50
00
70
C0
C0
C0
70
ENDCHAR
STARTCHAR Cdot
ENCODING 266
SWIDTH 375 0
DWIDTH 6 0
BBX 5 9 0 0
BITMAP
20
00
78
C0
C0
C0
C0
C0
78
ENDCHAR
STARTCHAR cdot
ENCODING 267
SWIDTH 312 0
DWIDTH 5 0
BBX 4 7 0 0
BITMAP
20
00
70
C0
C0
C0
70
ENDCHAR
STARTCHAR Ccaron
ENCODING 268
SWIDTH 375 0
DWIDTH 6 0
BBX 5 10 0 0
BITMAP
50
20
00
78
C0
C0
C0
C0
C0
78
ENDCHAR
STARTCHAR ccaron
ENCODING 269
SWIDTH 312 0
DWIDTH 5 0
BBX 4 8 0 0
BITMAP
50
20
00
70
C0
C0
C0
70
ENDCHAR
STARTCHAR Dcaron
ENCODING 270
SWIDTH 375 0
DWIDTH 6 0
BBX 5 10 0 0
BITMAP
50
20
00
F0
D8
D8
D8
D8
D8
F0
ENDCHAR
STARTCHAR dcaron
ENCODING 271
SWIDTH 500 0
DWIDTH 8 0
BBX 7 7 0 0
BITMAP
1A
1A
78
D8
D8
D8
78
ENDCHAR
STARTCHAR Dcroat
ENCODING 272
SWIDTH 437 0
DWIDTH 7 0
BBX 6 7 0 0
BITMAP
78
6C
6C
FC
6C
6C
78
ENDCHAR
STARTCHAR dcroat
ENCODING 273
SWIDTH 375 0
DWIDTH 6 0
BBX 6 7 0 0
BITMAP
18
3C
18
78
D8
D8
78
ENDCHAR
STARTCHAR Emacron
ENCODING 274
SWIDTH 375 0
DWIDTH 6 0
BBX 5 9 0 0
BITMAP
70
00
F8
C0
F0
C0
C0
C0
F8
ENDCHAR
STARTCHAR emacron
ENCODING 275
SWIDTH 375 0
DWIDTH 6 0
BBX 5 7 0 0
BITMAP
70
00
70
D8
F8
C0
78
ENDCHAR
STARTCHAR Ebreve
ENCODING 276
SWIDTH 375 0
DWIDTH 6 0
BBX 5 10 0 0
BITMAP
88
70
00
F8
C0
F0
C0
C0
C0
F8
ENDCHAR
STARTCHAR ebreve
ENCODING 277
SWIDTH 375 0
DWIDTH 6 0
BBX 5 8 0 0
BITMAP
88
70
00
70
D8
F8
C0
78
ENDCHAR
STARTCHAR Edot
ENCODING 278
SWIDTH 375 0
DWIDTH 6 0
BBX 5 9 0 0
BITMAP
20
00
F8
C0
F0
C0
C0
C0
F8
ENDCHAR
STARTCHAR edot
ENCODING 279
SWIDTH 375 0
DWIDTH 6 0
BBX 5 7 0 0
BITMAP
20
00
70
D8
F8
C0
78
ENDCHAR
STARTCHAR Eogonek
ENCODING 280
SWIDTH 375 0
DWIDTH 6 0
BBX 5 9 0 -2
BITMAP
F8
C0
F0
C0
C0
C0
F8
20
10
ENDCHAR
STARTCHAR eogonek
ENCODING 281
SWIDTH 375 0
DWIDTH 6 0
BBX 5 7 0 -2
BITMAP
70
D8
F8
C0
78
20
10
ENDCHAR
STARTCHAR Ecaron
ENCODING 282
SWIDTH 375 0
DWIDTH 6 0
BBX 5 10 0 0
BITMAP
50
20
00
F8
C0
F0
C0
C0
C0
F8
ENDCHAR
STARTCHAR ecaron
ENCODING 283
SWIDTH 375 0
DWIDTH 6 0
BBX 5 8 0 0
BITMAP
50
20
00
70
D8
F8
C0
78
ENDCHAR
STARTCHAR Gcircumflex
ENCODING 284
SWIDTH 375 0
DWIDTH 6 0
BBX 5 10 0 0
BITMAP
20
50
00
70
C0
C0
D8
D8
D8
78
ENDCHAR
STARTCHAR gcircumflex
ENCODING 285
SWIDTH 375 0
DWIDTH 6 0
BBX 5 9 0 -1
BITMAP
20
50
00
78
D8
D8
78
18
70
ENDCHAR
STARTCHAR Gbreve
ENCODING 286
SWIDTH 375 0
DWIDTH 6 0
BBX 5 10 0 0
BITMAP
88
70
00
70
C0
C0
D8
D8
D8
78
ENDCHAR
STARTCHAR gbreve
ENCODING 287
SWIDTH 375 0
DWIDTH 6 0
BBX 5 9 0 -1
BITMAP
88
70
00
78
D8
D8
78
18
70
ENDCHAR
STARTCHAR Gdot
ENCODING 288
SWIDTH 375 0
DWIDTH 6 0
BBX 5 9 0 0
BITMAP
20
00
70
C0
C0
D8
D8
D8
78
ENDCHAR
STARTCHAR gdot
ENCODING 289
SWIDTH 375 0
DWIDTH 6 0
BBX 5 8 0 -1
BITMAP
20
00
78
D8
D8
78
18
70
ENDCHAR
STARTCHAR Gcedilla
ENCODING 290
SWIDTH 375 0
DWIDTH 6 0
BBX 5 9 0 -2
BITMAP
70
C0
C0
D8
D8
D8
78
20
40
ENDCHAR
STARTCHAR gcedilla
ENCODING 291
SWIDTH 375 0
DWIDTH 6 0
BBX 5 9 0 -1
BITMAP
20
20
00
78
D8
D8
78
18
70
ENDCHAR
STARTCHAR Hcircumflex
ENCODING 292
SWIDTH 375 0
DWIDTH 6 0
BBX 5 10 0 0
BITMAP
20
50
00
D8
D8
F8
D8
D8
D8
D8
ENDCHAR
STARTCHAR hcircumflex
ENCODING 293
SWIDTH 375 0
DWIDTH 6 0
BBX 6 10 -1 0
BITMAP
60
90
00
60
60
78
6C
6C
6C
6C
ENDCHAR
STARTCHAR Hbar
ENCODING 294
SWIDTH 437 0
DWIDTH 7 0
BBX 7 7 0 0
BITMAP
6C
6C
FE
6C
7C
6C
6C
ENDCHAR
STARTCHAR hbar
ENCODING 295
SWIDTH 437 0
DWIDTH 7 0
BBX 6 7 0 0
BITMAP
60
F0
60
78
6C
6C
6C
ENDCHAR
STARTCHAR Itilde
ENCODING 296
SWIDTH 250 0
DWIDTH 4 0
BBX 4 10 -1 0
BITMAP
50
A0
00
60
60
60
60
60
60
60
ENDCHAR
STARTCHAR itilde
ENCODING 297
SWIDTH 250 0
DWIDTH 4 0
BBX 4 8 -1 0
BITMAP
50
A0
00
60
60
60
60
60
ENDCHAR
STARTCHAR Imacron
ENCODING 298
SWIDTH 250 0
DWIDTH 4 0
BBX 4 9 -1 0
BITMAP
F0
00
60
60
60
60
60
60
60
ENDCHAR
STARTCHAR imacron
ENCODING 299
SWIDTH 250 0
DWIDTH 4 0
BBX 4 7 -1 0
BITMAP
F0
00
60
60
60
60
60
ENDCHAR
STARTCHAR Ibreve
ENCODING 300
SWIDTH 187 0
DWIDTH 3 0
BBX 4 10 -1 0
BITMAP
90
60
00
60
60
60
60
60
60
60
ENDCHAR
STARTCHAR ibreve
ENCODING 301
SWIDTH 187 0
DWIDTH 3 0
BBX 4 8 -1 0
BITMAP
90
60
00
60
60
60
60
60
ENDCHAR
STARTCHAR Iogonek
ENCODING 302
SWIDTH 187 0
DWIDTH 3 0
BBX 2 9 0 -2
BITMAP
C0
C0
C0
C0
C0
C0
C0
80
40
ENDCHAR
STARTCHAR iogonek
ENCODING 303
SWIDTH 187 0
DWIDTH 3 0
BBX 2 9 0 -2
BITMAP
C0
00
C0
C0
C0
C0
C0
80
40
ENDCHAR
STARTCHAR Idotaccent
ENCODING 304
SWIDTH 187 0
DWIDTH 3 0
BBX 2 9 0 0
BITMAP
C0
00
C0
C0
C0
C0
C0
C0
C0
ENDCHAR
STARTCHAR dotlessi
ENCODING 305
SWIDTH 187 0
DWIDTH 3 0
BBX 2 5 0 0
BITMAP
C0
C0
C0
C0
C0
ENDCHAR
STARTCHAR IJ
ENCODING 306
SWIDTH 500 0
DWIDTH 8 0
BBX 7 7 0 0
BITMAP
C6
C6
C6
C6
C6
C6
DC
ENDCHAR
STARTCHAR ij
ENCODING 307
SWIDTH 437 0
DWIDTH 7 0
BBX 6 8 0 -1
BITMAP
CC
00
CC
CC
CC
CC
CC
18
ENDCHAR
STARTCHAR Jcircumflex
ENCODING 308
SWIDTH 312 0
DWIDTH 5 0
BBX 5 10 0 0
BITMAP
30
48
00
30
30
30
30
30
30
E0
ENDCHAR
STARTCHAR jcircumflex
ENCODING 309
SWIDTH 250 0
DWIDTH 4 0
BBX 4 9 0 -1
BITMAP
60
90
00
60
60
60
60
60
C0
ENDCHAR
STARTCHAR Kcedilla
ENCODING 310
SWIDTH 437 0
DWIDTH 7 0
BBX 6 9 0 -2
BITMAP
CC
D8
F0
E0
F0
D8
CC
10
20
ENDCHAR
STARTCHAR kcedilla
ENCODING 311
SWIDTH 375 0
DWIDTH 6 0
BBX 5 9 0 -2
BITMAP
C0
C0
D8
F0
E0
F0
D8
10
20
ENDCHAR
STARTCHAR kgreenlandic
ENCODING 312
SWIDTH 375 0
DWIDTH 6 0
BBX 5 5 0 0
BITMAP
D8
F0
E0
F0
D8
ENDCHAR
STARTCHAR Lacute
ENCODING 313
SWIDTH 312 0
DWIDTH 5 0
BBX 4 10 0 0
BITMAP
40
80
00
C0
C0
C0
C0
C0
C0
F0
ENDCHAR
STARTCHAR lacute
ENCODING 314
SWIDTH 187 0
DWIDTH 3 0
BBX 2 10 0 0
BITMAP
40
80
00
C0
C0
C0
C0
C0
C0
C0
ENDCHAR
STARTCHAR Lcedilla
ENCODING 315
SWIDTH 312 0
DWIDTH 5 0
BBX 4 9 0 -2
BITMAP
C0
C0
C0
C0
C0
C0
F0
20
40
ENDCHAR
STARTCHAR lcedilla
ENCODING 316
SWIDTH 187 0
DWIDTH 3 0
BBX 2 9 0 -2
BITMAP
C0
C0
C0
C0
C0
C0
C0
40
80
ENDCHAR
STARTCHAR Lcaron
ENCODING 317
SWIDTH 437 0
DWIDTH 7 0
BBX 6 7 0 0
BITMAP
C4
C4
C0
C0
C0
C0
F0
ENDCHAR
STARTCHAR lcaron
ENCODING 318
SWIDTH 312 0
DWIDTH 5 0
BBX 4 7 0 0
BITMAP
D0
D0
C0
C0
C0
C0
C0
ENDCHAR
STARTCHAR Ldot
ENCODING 319
SWIDTH 312 0
DWIDTH 5 0
BBX 4 7 0 0
BITMAP
C0
C0
C0
D0
C0
C0
F0
ENDCHAR
STARTCHAR ldot
ENCODING 320
SWIDTH 312 0
DWIDTH 5 0
BBX 4 7 0 0
BITMAP
C0
C0
C0
D0
C0
C0
C0
ENDCHAR
STARTCHAR Lslash
ENCODING 321
SWIDTH 375 0
DWIDTH 6 0
BBX 5 7 0 0
BITMAP
60
60
60
F0
60
60
78
ENDCHAR
STARTCHAR lslash
ENCODING 322
SWIDTH 250 0
DWIDTH 4 0
BBX 4 7 0 0
BITMAP
60
60
60
F0
60
60
60
ENDCHAR
STARTCHAR Nacute
ENCODING 323
SWIDTH 437 0
DWIDTH 7 0
BBX 6 10 0 0
BITMAP
08
10
00
8C
CC
EC
FC
DC
CC
C4
ENDCHAR
STARTCHAR nacute
ENCODING 324
SWIDTH 375 0
DWIDTH 6 0
BBX 5 8 0 0
BITMAP
10
20
00
F0
D8
D8
D8
D8
ENDCHAR
STARTCHAR Ncedilla
ENCODING 325
SWIDTH 437 0
DWIDTH 7 0
BBX 6 9 0 -2
BITMAP
8C
CC
EC
FC
DC
CC
C4
10
20
ENDCHAR
STARTCHAR ncedilla
ENCODING 326
SWIDTH 375 0
DWIDTH 6 0
BBX 5 7 0 -2
BITMAP
F0
D8
D8
D8
D8
10
20
ENDCHAR
STARTCHAR Ncaron
ENCODING 327
SWIDTH 437 0
DWIDTH 7 0
BBX 6 10 0 0
BITMAP
50
20
00
8C
CC
EC
FC
DC
CC
C4
ENDCHAR
STARTCHAR ncaron
ENCODING 328
SWIDTH 375 0
DWIDTH 6 0
BBX 5 8 0 0
BITMAP
50
20
00
F0
D8
D8
D8
D8
ENDCHAR
STARTCHAR napostrophe
ENCODING 329
SWIDTH 500 0
DWIDTH 8 0
BBX 7 7 0 0
BITMAP
80
80
3C
36
36
36
36
ENDCHAR
STARTCHAR Eng
ENCODING 330
SWIDTH 375 0
DWIDTH 6 0
BBX 5 9 0 -2
BITMAP
F0
D8
D8
D8
D8
D8
D8
18
30
ENDCHAR
STARTCHAR eng
ENCODING 331
SWIDTH 375 0
DWIDTH 6 0
BBX 5 7 0 -2
BITMAP
F0
D8
D8
D8
D8
18
30
ENDCHAR
STARTCHAR Omacron
ENCODING 332
SWIDTH 437 0
DWIDTH 7 0
BBX 6 9 0 0
BITMAP
78
00
78
CC
CC
CC
CC
CC
78
ENDCHAR
STARTCHAR omacron
ENCODING 333
SWIDTH 375 0
DWIDTH 6 0
BBX 5 7 0 0
BITMAP
70
00
70
D8
D8
D8
70
ENDCHAR
STARTCHAR Obreve
ENCODING 334
SWIDTH 437 0
DWIDTH 7 0
BBX 6 10 0 0
BITMAP
48
30
00
78
CC
CC
CC
CC
CC
78
ENDCHAR
STARTCHAR obreve
ENCODING 335
SWIDTH 375 0
DWIDTH 6 0
BBX 5 8 0 0
BITMAP
88
70
00
70
D8
D8
D8
70
ENDCHAR
STARTCHAR Odblacute
ENCODING 336
SWIDTH 437 0
DWIDTH 7 0
BBX 6 10 0 0
BITMAP
24
48
00
78
CC
CC
CC
CC
CC
78
ENDCHAR
STARTCHAR odblacute
ENCODING 337
SWIDTH 375 0
DWIDTH 6 0
BBX 5 8 0 0
BITMAP
48
90
00
70
D8
D8
D8
70
ENDCHAR
STARTCHAR OE
ENCODING 338
SWIDTH 625 0
DWIDTH 10 0
BBX 9 7 0 0
BITMAP
7F80
CC00
CF00
CC00
CC00
CC00
7F80
ENDCHAR
STARTCHAR oe
ENCODING 339
SWIDTH 562 0
DWIDTH 9 0
BBX 8 5 0 0
BITMAP
7E
DB
DF
D8
7F
ENDCHAR
STARTCHAR Racute
ENCODING 340
SWIDTH 375 0
DWIDTH 6 0
BBX 5 10 0 0
BITMAP
10
20
00
F0
D8
D8
D8
F0
D0
D8
ENDCHAR
STARTCHAR racute
ENCODING 341
SWIDTH 312 0
DWIDTH 5 0
BBX 4 8 0 0
BITMAP
20
40
00
D0
F0
C0
C0
C0
ENDCHAR
STARTCHAR Rcedilla
ENCODING 342
SWIDTH 375 0
DWIDTH 6 0
BBX 5 9 0 -2
BITMAP
F0
D8
D8
D8
F0
D0
D8
10
20
ENDCHAR
STARTCHAR rcedilla
ENCODING 343
SWIDTH 312 0
DWIDTH 5 0
BBX 4 7 0 -2
BITMAP
D0
F0
C0
C0
C0
20
40
ENDCHAR
STARTCHAR Rcaron
ENCODING 344
SWIDTH 375 0
DWIDTH 6 0
BBX 5 10 0 0
BITMAP
50
20
00
F0
D8
D8
D8
F0
D0
D8
ENDCHAR
STARTCHAR rcaron
ENCODING 345
SWIDTH 312 0
DWIDTH 5 0
BBX 4 8 0 0
BITMAP
90
60
00
D0
F0
C0
C0
C0
ENDCHAR
STARTCHAR Sacute
ENCODING 346
SWIDTH 312 0
DWIDTH 5 0
BBX 4 10 0 0
BITMAP
20
40
00
70
C0
C0
60
30
30
E0
ENDCHAR
STARTCHAR sacute
ENCODING 347
SWIDTH 312 0
DWIDTH 5 0
BBX 4 8 0 0
BITMAP
20
40
00
70
C0
F0
30
E0
ENDCHAR
STARTCHAR Scircumflex
ENCODING 348
SWIDTH 312 0
DWIDTH 5 0
BBX 4 10 0 0
BITMAP
60
90
00
70
C0
C0
60
30
30
E0
ENDCHAR
STARTCHAR scircumflex
ENCODING 349
SWIDTH 312 0
DWIDTH 5 0
BBX 4 8 0 0
BITMAP
60
90
00
70
C0
F0
30
E0
ENDCHAR
STARTCHAR Scedilla
ENCODING 350
SWIDTH 312 0
DWIDTH 5 0
BBX 4 9 0 -2
BITMAP
70
C0
C0
60
30
30
E0
40
80
ENDCHAR
STARTCHAR scedilla
ENCODING 351
SWIDTH 312 0
DWIDTH 5 0
BBX 4 7 0 -2
BITMAP
70
C0
F0
30
E0
40
80
ENDCHAR
STARTCHAR Scaron
ENCODING 352
SWIDTH 312 0
DWIDTH 5 0
BBX 4 10 0 0
BITMAP
50
20
00
70
C0
C0
60
30
30
E0
ENDCHAR
STARTCHAR scaron
ENCODING 353
SWIDTH 312 0
DWIDTH 5 0
BBX 4 8 0 0
BITMAP
50
20
00
70
C0
F0
30
E0
ENDCHAR
STARTCHAR Tcedilla
ENCODING 354
SWIDTH 437 0
DWIDTH 7 0
BBX 6 9 0 -2
BITMAP
FC
30
30
30
30
30
30
10
20
ENDCHAR
STARTCHAR tcedilla
ENCODING 355
SWIDTH 250 0
DWIDTH 4 0
BBX 3 9 0 -2
BITMAP
C0
C0
E0
C0
C0
C0
60
20
40
ENDCHAR
STARTCHAR Tcaron
ENCODING 356
SWIDTH 437 0
DWIDTH 7 0
BBX 6 10 0 0
BITMAP
48
30
00
FC
30
30
30
30
30
30
ENDCHAR
STARTCHAR tcaron
ENCODING 357
SWIDTH 375 0
DWIDTH 6 0
BBX 5 7 0 0
BITMAP
C8
C8
E0
C0
C0
C0
60
ENDCHAR
STARTCHAR Tbar
ENCODING 358
SWIDTH 437 0
DWIDTH 7 0
BBX 6 7 0 0
BITMAP
FC
30
30
78
30
30
30
ENDCHAR
STARTCHAR tbar
ENCODING 359
SWIDTH 312 0
DWIDTH 5 0
BBX 4 7 0 0
BITMAP
60
60
70
60
F0
60
30
ENDCHAR
STARTCHAR Utilde
ENCODING 360
SWIDTH 375 0
DWIDTH 6 0
BBX 5 10 0 0
BITMAP
68
B0
00
D8
D8
D8
D8
D8
D8
70
ENDCHAR
STARTCHAR utilde
ENCODING 361
SWIDTH 375 0
DWIDTH 6 0
BBX 5 8 0 0
BITMAP
68
B0
00
D8
D8
D8
D8
78
ENDCHAR
STARTCHAR Umacron
ENCODING 362
SWIDTH 375 0
DWIDTH 6 0
BBX 5 9 0 0
BITMAP
70
00
D8
D8
D8
D8
D8
D8
70
ENDCHAR
STARTCHAR umacron
ENCODING 363
SWIDTH 375 0
DWIDTH 6 0
BBX 5 7 0 0
BITMAP
70
00
D8
D8
D8
D8
78
ENDCHAR
STARTCHAR Ubreve
ENCODING 364
SWIDTH 375 0
DWIDTH 6 0
BBX 5 10 0 0
BITMAP
88
70
00
D8
D8
D8
D8
D8
D8
70
ENDCHAR
STARTCHAR ubreve
ENCODING 365
SWIDTH 375 0
DWIDTH 6 0
BBX 5 8 0 0
BITMAP
88
70
00
D8
D8
D8
D8
78
ENDCHAR
STARTCHAR Uring
ENCODING 366
SWIDTH 375 0
DWIDTH 6 0
BBX 5 9 0 0
BITMAP
20
50
F8
D8
D8
D8
D8
D8
70
ENDCHAR
STARTCHAR uring
ENCODING 367
SWIDTH 375 0
DWIDTH 6 0
BBX 5 7 0 0
BITMAP
20
50
F8
D8
D8
D8
78
ENDCHAR
STARTCHAR Udblacute
ENCODING 368
SWIDTH 375 0
DWIDTH 6 0
BBX 5 10 0 0
BITMAP
48
90
00
D8
D8
D8
D8
D8
D8
70
ENDCHAR
STARTCHAR udblacute
ENCODING 369
SWIDTH 375 0
DWIDTH 6 0
BBX 5 8 0 0
BITMAP
48
90
00
D8
D8
D8
D8
78
ENDCHAR
STARTCHAR Uogonek
ENCODING 370
SWIDTH 375 0
DWIDTH 6 0
BBX 5 9 0 -2
BITMAP
D8
D8
D8
D8
D8
D8
70
20
10
ENDCHAR
STARTCHAR uogonek
ENCODING 371
SWIDTH 375 0
DWIDTH 6 0
BBX 5 7 0 -2
BITMAP
D8
D8
D8
D8
78
20
10
ENDCHAR
STARTCHAR Wcircumflex
ENCODING 372
SWIDTH 500 0
DWIDTH 8 0
BBX 7 10 0 0
BITMAP
10
28
00
C6
C6
D6
FE
7C
7C
6C
ENDCHAR
STARTCHAR wcircumflex
ENCODING 373
SWIDTH 500 0
DWIDTH 8 0
BBX 7 8 0 0
BITMAP
10
28
00
C6
D6
D6
7C
6C
ENDCHAR
STARTCHAR Ycircumflex
ENCODING 374
SWIDTH 437 0
DWIDTH 7 0
BBX 6 10 0 0
BITMAP
30
48
00
CC
CC
78
30
30
30
30
ENDCHAR
STARTCHAR ycircumflex
ENCODING 375
SWIDTH 375 0
DWIDTH 6 0
BBX 5 9 0 -1
BITMAP
20
50
00
D8
D8
D8
78
18
70
ENDCHAR
STARTCHAR Ydieresis
ENCODING 376
SWIDTH 437 0
DWIDTH 7 0
BBX 6 9 0 0
BITMAP
48
00
CC
CC
78
30
30
30
30
ENDCHAR
STARTCHAR Zacute
ENCODING 377
SWIDTH 375 0
DWIDTH 6 0
BBX 5 10 0 0
BITMAP
10
20
00
F8
18
38
70
E0
C0
F8
ENDCHAR
STARTCHAR zacute
ENCODING 378
SWIDTH 375 0
DWIDTH 6 0
BBX 5 8 0 0
BITMAP
10
20
00
F8
30
60
C0
F8
ENDCHAR
STARTCHAR Zdot
ENCODING 379
SWIDTH 375 0
DWIDTH 6 0
BBX 5 9 0 0
BITMAP
20
00
F8
18
38
70
E0
C0
F8
ENDCHAR
STARTCHAR zdot
ENCODING 380
SWIDTH 375 0
DWIDTH 6 0
BBX 5 7 0 0
BITMAP
20
00
F8
30
60
C0
F8
ENDCHAR
STARTCHAR Zcaron
ENCODING 381
SWIDTH 375 0
DWIDTH 6 0
BBX 5 10 0 0
BITMAP
50
20
00
F8
18
38
70
E0
C0
F8
ENDCHAR
STARTCHAR zcaron
ENCODING 382
SWIDTH 375 0
DWIDTH 6 0
BBX 5 8 0 0
BITMAP
50
20
00
F8
30
60
C0
F8
ENDCHAR
STARTCHAR longs
ENCODING 383
SWIDTH 250 0
DWIDTH 4 0
BBX 3 7 0 0
BITMAP
60
C0
C0
C0
C0
C0
C0
ENDCHAR
STARTCHAR florin
ENCODING 402
SWIDTH 312 0
DWIDTH 5 0
BBX 4 7 0 0
BITMAP
30
60
60
F0
60
60
C0
ENDCHAR
STARTCHAR Aringacute
ENCODING 506
SWIDTH 375 0
DWIDTH 6 0
BBX 5 11 0 0
BITMAP
10
20
20
50
70
D8
D8
D8
F8
D8
D8
ENDCHAR
STARTCHAR aringacute
ENCODING 507
SWIDTH 375 0
DWIDTH 6 0
BBX 5 9 0 0
BITMAP
10
20
20
50
70
18
78
D8
78
ENDCHAR
STARTCHAR AEacute
ENCODING 508
SWIDTH 562 0
DWIDTH 9 0
BBX 8 10 0 0
BITMAP
08
10
00
7F
D8
DE
D8
F8
D8
DF
ENDCHAR
STARTCHAR aeacute
ENCODING 509
SWIDTH 562 0
DWIDTH 9 0
BBX 8 8 0 0
BITMAP
08
10
00
7E
1B
7F
D8
7F
ENDCHAR
STARTCHAR Oslashacute
ENCODING 510
SWIDTH 437 0
DWIDTH 7 0
BBX 6 10 0 0
BITMAP
10
20
00
74
C8
DC
FC
EC
4C
B8
ENDCHAR
STARTCHAR oslashacute
ENCODING 511
SWIDTH 375 0
DWIDTH 6 0
BBX 5 8 0 0
BITMAP
10
20
00
68
D0
F8
58
B0
ENDCHAR
STARTCHAR Scommaaccent
ENCODING 536
SWIDTH 312 0
DWIDTH 5 0
BBX 4 10 0 -3
BITMAP
70
C0
C0
60
30
30
E0
00
40
40
ENDCHAR
STARTCHAR scommaaccent
ENCODING 537
SWIDTH 312 0
DWIDTH 5 0
BBX 4 8 0 -3
BITMAP
70
C0
F0
30
E0
00
40
40
ENDCHAR
STARTCHAR Tcommabelow
ENCODING 538
SWIDTH 437 0
DWIDTH 7 0
BBX 6 10 0 -3
BITMAP
FC
30
30
30
30
30
30
00
20
20
ENDCHAR
STARTCHAR tcommabelow
ENCODING 539
SWIDTH 250 0
DWIDTH 4 0
BBX 3 10 0 -3
BITMAP
C0
C0
E0
C0
C0
C0
60
00
40
40
ENDCHAR
STARTCHAR dotlessj
ENCODING 567
SWIDTH 250 0
DWIDTH 4 0
BBX 3 6 0 -1
BITMAP
60
60
60
60
60
C0
ENDCHAR
STARTCHAR circumflex
ENCODING 710
SWIDTH 250 0
DWIDTH 4 0
BBX 3 2 0 5
BITMAP
40
A0
ENDCHAR
STARTCHAR caron
ENCODING 711
SWIDTH 250 0
DWIDTH 4 0
BBX 3 2 0 5
BITMAP
A0
40
ENDCHAR
STARTCHAR firsttonechinese
ENCODING 713
SWIDTH 312 0
DWIDTH 5 0
BBX 4 1 0 6
BITMAP
F0
ENDCHAR
STARTCHAR breve
ENCODING 728
SWIDTH 312 0
DWIDTH 5 0
BBX 4 2 0 5
BITMAP
90
60
ENDCHAR
STARTCHAR dotaccent
ENCODING 729
SWIDTH 125 0
DWIDTH 2 0
BBX 1 1 0 6
BITMAP
80
ENDCHAR
STARTCHAR ring
ENCODING 730
SWIDTH 250 0
DWIDTH 4 0
BBX 3 3 0 4
BITMAP
40
A0
40
ENDCHAR
STARTCHAR ogonek
ENCODING 731
SWIDTH 187 0
DWIDTH 3 0
BBX 2 2 0 -2
BITMAP
80
40
ENDCHAR
STARTCHAR tilde
ENCODING 732
SWIDTH 375 0
DWIDTH 6 0
BBX 5 2 0 5
BITMAP
68
B0
ENDCHAR
STARTCHAR hungarumlaut
ENCODING 733
SWIDTH 375 0
DWIDTH 6 0
BBX 5 2 0 5
BITMAP
48
90
ENDCHAR
STARTCHAR tonos
ENCODING 900
SWIDTH 125 0
DWIDTH 2 0
BBX 1 2 0 5
BITMAP
80
80
ENDCHAR
STARTCHAR dialytikatonos
ENCODING 901
SWIDTH 375 0
DWIDTH 6 0
BBX 5 2 0 5
BITMAP
20
A8
ENDCHAR
STARTCHAR Alphatonos
ENCODING 902
SWIDTH 562 0
DWIDTH 9 0
BBX 8 7 0 0
BITMAP
4E
9B
1B
1B
1F
1B
1B
ENDCHAR
STARTCHAR anoteleia
ENCODING 903
SWIDTH 125 0
DWIDTH 2 0
BBX 1 1 0 3
BITMAP
80
ENDCHAR
STARTCHAR Epsilontonos
ENCODING 904
SWIDTH 562 0
DWIDTH 9 0
BBX 8 7 0 0
BITMAP
5F
98
1E
18
18
18
1F
ENDCHAR
STARTCHAR Etatonos
ENCODING 905
SWIDTH 562 0
DWIDTH 9 0
BBX 8 7 0 0
BITMAP
5B
9B
1F
1B
1B
1B
1B
ENDCHAR
STARTCHAR Iotatonos
ENCODING 906
SWIDTH 375 0
DWIDTH 6 0
BBX 5 7 0 0
BITMAP
58
98
18
18
18
18
18
ENDCHAR
STARTCHAR Omicrontonos
ENCODING 908
SWIDTH 625 0
DWIDTH 10 0
BBX 9 7 0 0
BITMAP
4F00
9980
1980
1980
1980
1980
0F00
ENDCHAR
STARTCHAR Upsilontonos
ENCODING 910
SWIDTH 625 0
DWIDTH 10 0
BBX 9 7 0 0
BITMAP
5980
9980
0F00
0600
0600
0600
0600
ENDCHAR
STARTCHAR Omegatonos
ENCODING 911
SWIDTH 500 0
DWIDTH 8 0
BBX 7 7 0 0
BITMAP
9C
B6
36
36
36
14
36
ENDCHAR
STARTCHAR iotadieresistonos
ENCODING 912
SWIDTH 187 0
DWIDTH 3 0
BBX 4 9 -1 0
BITMAP
20
40
90
00
60
60
60
60
60
ENDCHAR
STARTCHAR Alpha
ENCODING 913
SWIDTH 375 0
DWIDTH 6 0
BBX 5 7 0 0
BITMAP
70
D8
D8
D8
F8
D8
D8
ENDCHAR
STARTCHAR Beta
ENCODING 914
SWIDTH 375 0
DWIDTH 6 0
BBX 5 7 0 0
BITMAP
F0
D8
F0
D8
D8
D8
F0
ENDCHAR
STARTCHAR Gamma
ENCODING 915
SWIDTH 375 0
DWIDTH 6 0
BBX 5 7 0 0
BITMAP
F8
C0
C0
C0
C0
C0
C0
ENDCHAR
STARTCHAR Deltagreek
ENCODING 916
SWIDTH 437 0
DWIDTH 7 0
BBX 6 7 0 0
BITMAP
30
30
78
78
CC
CC
FC
ENDCHAR
STARTCHAR Epsilon
ENCODING 917
SWIDTH 375 0
DWIDTH 6 0
BBX 5 7 0 0
BITMAP
F8
C0
F0
C0
C0
C0
F8
ENDCHAR
STARTCHAR Zeta
ENCODING 918
SWIDTH 375 0
DWIDTH 6 0
BBX 5 7 0 0
BITMAP
F8
18
38
70
E0
C0
F8
ENDCHAR
STARTCHAR Eta
ENCODING 919
SWIDTH 375 0
DWIDTH 6 0
BBX 5 7 0 0
BITMAP
D8
D8
F8
D8
D8
D8
D8
ENDCHAR
STARTCHAR Theta
ENCODING 920
SWIDTH 437 0
DWIDTH 7 0
BBX 6 7 0 0
BITMAP
78
CC
CC
FC
CC
CC
78
ENDCHAR
STARTCHAR Iota
ENCODING 921
SWIDTH 187 0
DWIDTH 3 0
BBX 2 7 0 0
BITMAP
C0
C0
C0
C0
C0
C0
C0
ENDCHAR
STARTCHAR Kappa
ENCODING 922
SWIDTH 437 0
DWIDTH 7 0
BBX 6 7 0 0
BITMAP
CC
D8
F0
E0
F0
D8
CC
ENDCHAR
STARTCHAR Lambda
ENCODING 923
SWIDTH 437 0
DWIDTH 7 0
BBX 6 7 0 0
BITMAP
30
30
78
78
CC
CC
CC
ENDCHAR
STARTCHAR Mu
ENCODING 924
SWIDTH 500 0
DWIDTH 8 0
BBX 7 7 0 0
BITMAP
82
C6
EE
FE
D6
C6
C6
ENDCHAR
STARTCHAR Nu
ENCODING 925
SWIDTH 437 0
DWIDTH 7 0
BBX 6 7 0 0
BITMAP
8C
CC
EC
FC
DC
CC
C4
ENDCHAR
STARTCHAR Xi
ENCODING 926
SWIDTH 375 0
DWIDTH 6 0
BBX 5 7 0 0
BITMAP
F8
00
00
70
00
00
F8
ENDCHAR
STARTCHAR Omicron
ENCODING 927
SWIDTH 437 0
DWIDTH 7 0
BBX 6 7 0 0
BITMAP
78
CC
CC
CC
CC
CC
78
ENDCHAR
STARTCHAR Pi
ENCODING 928
SWIDTH 375 0
DWIDTH 6 0
BBX 5 7 0 0
BITMAP
F8
D8
D8
D8
D8
D8
D8
ENDCHAR
STARTCHAR Rho
ENCODING 929
SWIDTH 375 0
DWIDTH 6 0
BBX 5 7 0 0
BITMAP
F0
D8
D8
D8
F0
C0
C0
ENDCHAR
STARTCHAR Sigma
ENCODING 931
SWIDTH 437 0
DWIDTH 7 0
BBX 6 7 0 0
BITMAP
FC
60
30
18
30
60
FC
ENDCHAR
STARTCHAR Tau
ENCODING 932
SWIDTH 437 0
DWIDTH 7 0
BBX 6 7 0 0
BITMAP
FC
30
30
30
30
30
30
ENDCHAR
STARTCHAR Upsilon
ENCODING 933
SWIDTH 437 0
DWIDTH 7 0
BBX 6 7 0 0
BITMAP
CC
CC
78
30
30
30
30
ENDCHAR
STARTCHAR Phi
ENCODING 934
SWIDTH 562 0
DWIDTH 9 0
BBX 8 7 0 0
BITMAP
18
7E
DB
DB
DB
7E
18
ENDCHAR
STARTCHAR Chi
ENCODING 935
SWIDTH 437 0
DWIDTH 7 0
BBX 6 7 0 0
BITMAP
CC
CC
78
30
78
CC
CC
ENDCHAR
STARTCHAR Psi
ENCODING 936
SWIDTH 562 0
DWIDTH 9 0
BBX 8 7 0 0
BITMAP
DB
DB
DB
DB
7E
18
18
ENDCHAR
STARTCHAR Omega
ENCODING 937
SWIDTH 375 0
DWIDTH 6 0
BBX 5 7 0 0
BITMAP
70
D8
D8
D8
D8
50
D8
ENDCHAR
STARTCHAR Iotadieresis
ENCODING 938
SWIDTH 250 0
DWIDTH 4 0
BBX 4 9 -1 0
BITMAP
90
00
60
60
60
60
60
60
60
ENDCHAR
STARTCHAR Upsilondieresis
ENCODING 939
SWIDTH 437 0
DWIDTH 7 0
BBX 6 9 0 0
BITMAP
48
00
CC
CC
78
30
30
30
30
ENDCHAR
STARTCHAR alphatonos
ENCODING 940
SWIDTH 375 0
DWIDTH 6 0
BBX 5 8 0 0
BITMAP
10
20
00
78
D8
D8
D8
78
ENDCHAR
STARTCHAR epsilontonos
ENCODING 941
SWIDTH 375 0
DWIDTH 6 0
BBX 5 8 0 0
BITMAP
10
20
00
78
C0
78
C0
78
ENDCHAR
STARTCHAR etatonos
ENCODING 942
SWIDTH 375 0
DWIDTH 6 0
BBX 5 9 0 -1
BITMAP
10
20
00
F0
D8
D8
D8
D8
18
ENDCHAR
STARTCHAR iotatonos
ENCODING 943
SWIDTH 187 0
DWIDTH 3 0
BBX 2 8 0 0
BITMAP
40
80
00
C0
C0
C0
C0
C0
ENDCHAR
STARTCHAR upsilondieresistonos
ENCODING 944
SWIDTH 375 0
DWIDTH 6 0
BBX 5 8 0 0
BITMAP
10
A8
00
D8
D8
D8
D8
70
ENDCHAR
STARTCHAR alpha
ENCODING 945
SWIDTH 375 0
DWIDTH 6 0
BBX 5 5 0 0
BITMAP
78
D8
D8
D8
78
ENDCHAR
STARTCHAR beta
ENCODING 946
SWIDTH 375 0
DWIDTH 6 0
BBX 5 8 0 -1
BITMAP
70
D8
F0
D8
D8
D8
D0
C0
ENDCHAR
STARTCHAR gamma
ENCODING 947
SWIDTH 437 0
DWIDTH 7 0
BBX 6 6 0 -1
BITMAP
CC
CC
CC
78
30
30
ENDCHAR
STARTCHAR delta
ENCODING 948
SWIDTH 375 0
DWIDTH 6 0
BBX 5 7 0 0
BITMAP
F8
C0
70
D8
D8
D8
70
ENDCHAR
STARTCHAR epsilon
ENCODING 949
SWIDTH 375 0
DWIDTH 6 0
BBX 5 5 0 0
BITMAP
78
C0
78
C0
78
ENDCHAR
STARTCHAR zeta
ENCODING 950
SWIDTH 375 0
DWIDTH 6 0
BBX 5 8 0 -1
BITMAP
F8
60
C0
C0
C0
70
18
70
ENDCHAR
STARTCHAR eta
ENCODING 951
SWIDTH 375 0
DWIDTH 6 0
BBX 5 6 0 -1
BITMAP
F0
D8
D8
D8
D8
18
ENDCHAR
STARTCHAR theta
ENCODING 952
SWIDTH 375 0
DWIDTH 6 0
BBX 5 7 0 0
BITMAP
70
D8
D8
F8
D8
D8
70
ENDCHAR
STARTCHAR iota
ENCODING 953
SWIDTH 187 0
DWIDTH 3 0
BBX 2 5 0 0
BITMAP
C0
C0
C0
C0
C0
ENDCHAR
STARTCHAR kappa
ENCODING 954
SWIDTH 375 0
DWIDTH 6 0
BBX 5 5 0 0
BITMAP
D8
F0
E0
F0
D8
ENDCHAR
STARTCHAR lambda
ENCODING 955
SWIDTH 375 0
DWIDTH 6 0
BBX 5 7 0 0
BITMAP
C0
60
60
70
70
D8
D8
ENDCHAR
STARTCHAR mugreek
ENCODING 956
SWIDTH 375 0
DWIDTH 6 0
BBX 5 6 0 -1
BITMAP
D8
D8
D8
F0
C0
C0
ENDCHAR
STARTCHAR nu
ENCODING 957
SWIDTH 375 0
DWIDTH 6 0
BBX 5 5 0 0
BITMAP
D8
D8
70
70
20
ENDCHAR
STARTCHAR xi
ENCODING 958
SWIDTH 375 0
DWIDTH 6 0
BBX 5 8 0 -1
BITMAP
78
C0
70
C0
C0
70
18
70
ENDCHAR
STARTCHAR omicron
ENCODING 959
SWIDTH 375 0
DWIDTH 6 0
BBX 5 5 0 0
BITMAP
70
D8
D8
D8
70
ENDCHAR
STARTCHAR pi
ENCODING 960
SWIDTH 375 0
DWIDTH 6 0
BBX 5 5 0 0
BITMAP
F8
D8
D8
D8
D8
ENDCHAR
STARTCHAR rho
ENCODING 961
SWIDTH 375 0
DWIDTH 6 0
BBX 5 6 0 -1
BITMAP
70
D8
D8
F0
C0
C0
ENDCHAR
STARTCHAR sigma1
ENCODING 962
SWIDTH 375 0
DWIDTH 6 0
BBX 5 6 0 -1
BITMAP
78
C0
C0
70
18
30
ENDCHAR
STARTCHAR sigma
ENCODING 963
SWIDTH 437 0
DWIDTH 7 0
BBX 6 5 0 0
BITMAP
7C
D8
D8
D8
70
ENDCHAR
STARTCHAR tau
ENCODING 964
SWIDTH 312 0
DWIDTH 5 0
BBX 4 5 0 0
BITMAP
F0
60
60
60
60
ENDCHAR
STARTCHAR upsilon
ENCODING 965
SWIDTH 375 0
DWIDTH 6 0
BBX 5 5 0 0
BITMAP
D8
D8
D8
D8
70
ENDCHAR
STARTCHAR phi
ENCODING 966
SWIDTH 562 0
DWIDTH 9 0
BBX 8 6 0 -1
BITMAP
CE
DB
DB
7E
18
18
ENDCHAR
STARTCHAR chi
ENCODING 967
SWIDTH 375 0
DWIDTH 6 0
BBX 5 6 0 -1
BITMAP
D8
F8
70
70
F8
D8
ENDCHAR
STARTCHAR psi
ENCODING 968
SWIDTH 562 0
DWIDTH 9 0
BBX 8 6 0 -1
BITMAP
DB
DB
DB
7E
18
18
ENDCHAR
STARTCHAR omega
ENCODING 969
SWIDTH 562 0
DWIDTH 9 0
BBX 8 5 0 0
BITMAP
C3
DB
DB
DB
7E
ENDCHAR
STARTCHAR iotadieresis
ENCODING 970
SWIDTH 250 0
DWIDTH 4 0
BBX 4 7 -1 0
BITMAP
90
00
60
60
60
60
60
ENDCHAR
STARTCHAR upsilondieresis
ENCODING 971
SWIDTH 375 0
DWIDTH 6 0
BBX 5 7 0 0
BITMAP
50
00
D8
D8
D8
D8
70
ENDCHAR
STARTCHAR omicrontonos
ENCODING 972
SWIDTH 375 0
DWIDTH 6 0
BBX 5 8 0 0
BITMAP
10
20
00
70
D8
D8
D8
70
ENDCHAR
STARTCHAR upsilontonos
ENCODING 973
SWIDTH 375 0
DWIDTH 6 0
BBX 5 8 0 0
BITMAP
10
20
00
D8
D8
D8
D8
70
ENDCHAR
STARTCHAR omegatonos
ENCODING 974
SWIDTH 562 0
DWIDTH 9 0
BBX 8 8 0 0
BITMAP
08
10
00
C3
DB
DB
DB
7E
ENDCHAR
STARTCHAR afii10023
ENCODING 1025
SWIDTH 375 0
DWIDTH 6 0
BBX 5 9 0 0
BITMAP
50
00
F8
C0
F0
C0
C0
C0
F8
ENDCHAR
STARTCHAR afii10051
ENCODING 1026
SWIDTH 500 0
DWIDTH 8 0
BBX 7 7 0 0
BITMAP
FC
30
30
3C
36
36
34
ENDCHAR
STARTCHAR afii10052
ENCODING 1027
SWIDTH 375 0
DWIDTH 6 0
BBX 5 7 0 0
BITMAP
F8
C0
C0
C0
C0
C0
C0
ENDCHAR
STARTCHAR afii10053
ENCODING 1028
SWIDTH 375 0
DWIDTH 6 0
BBX 5 7 0 0
BITMAP
78
C0
C0
F0
C0
C0
78
ENDCHAR
STARTCHAR afii10054
ENCODING 1029
SWIDTH 312 0
DWIDTH 5 0
BBX 4 7 0 0
BITMAP
70
C0
C0
60
30
30
E0
ENDCHAR
STARTCHAR afii10055
ENCODING 1030
SWIDTH 187 0
DWIDTH 3 0
BBX 2 7 0 0
BITMAP
C0
C0
C0
C0
C0
C0
C0
ENDCHAR
STARTCHAR afii10056
ENCODING 1031
SWIDTH 187 0
DWIDTH 3 0
BBX 4 9 -1 0
BITMAP
90
00
60
60
60
60
60
60
60
ENDCHAR
STARTCHAR afii10057
ENCODING 1032
SWIDTH 312 0
DWIDTH 5 0
BBX 4 7 0 0
BITMAP
30
30
30
30
30
30
E0
ENDCHAR
STARTCHAR afii10058
ENCODING 1033
SWIDTH 625 0
DWIDTH 10 0
BBX 9 7 0 0
BITMAP
7C00
6C00
6F00
6D80
6D80
6D80
CF00
ENDCHAR
STARTCHAR afii10059
ENCODING 1034
SWIDTH 562 0
DWIDTH 9 0
BBX 8 7 0 0
BITMAP
D8
D8
FE
DB
DB
DB
DE
ENDCHAR
STARTCHAR afii10060
ENCODING 1035
SWIDTH 500 0
DWIDTH 8 0
BBX 7 7 0 0
BITMAP
FC
30
30
3C
36
36
36
ENDCHAR
STARTCHAR afii10061
ENCODING 1036
SWIDTH 437 0
DWIDTH 7 0
BBX 6 10 0 0
BITMAP
10
20
00
CC
D8
F0
E0
F0
D8
CC
ENDCHAR
STARTCHAR afii10062
ENCODING 1038
SWIDTH 375 0
DWIDTH 6 0
BBX 5 10 0 0
BITMAP
88
70
00
D8
D8
D8
D8
78
18
70
ENDCHAR
STARTCHAR afii10145
ENCODING 1039
SWIDTH 375 0
DWIDTH 6 0
BBX 5 8 0 -1
BITMAP
D8
D8
D8
D8
D8
D8
F8
20
ENDCHAR
STARTCHAR Acyrillic
ENCODING 1040
SWIDTH 375 0
DWIDTH 6 0
BBX 5 7 0 0
BITMAP
70
D8
D8
D8
F8
D8
D8
ENDCHAR
STARTCHAR afii10018
ENCODING 1041
SWIDTH 375 0
DWIDTH 6 0
BBX 5 7 0 0
BITMAP
F0
C0
F0
D8
D8
D8
F0
ENDCHAR
STARTCHAR afii10019
ENCODING 1042
SWIDTH 375 0
DWIDTH 6 0
BBX 5 7 0 0
BITMAP
F0
D8
F0
D8
D8
D8
F0
ENDCHAR
STARTCHAR afii10020
ENCODING 1043
SWIDTH 375 0
DWIDTH 6 0
BBX 5 7 0 0
BITMAP
F8
C0
C0
C0
C0
C0
C0
ENDCHAR
STARTCHAR afii10021
ENCODING 1044
SWIDTH 500 0
DWIDTH 8 0
BBX 7 8 0 -1
BITMAP
7C
6C
6C
6C
6C
CC
FE
C6
ENDCHAR
STARTCHAR afii10022
ENCODING 1045
SWIDTH 375 0
DWIDTH 6 0
BBX 5 7 0 0
BITMAP
F8
C0
F0
C0
C0
C0
F8
ENDCHAR
STARTCHAR afii10024
ENCODING 1046
SWIDTH 687 0
DWIDTH 11 0
BBX 10 7 0 0
BITMAP
CCC0
6D80
3F00
1E00
3F00
6D80
CCC0
ENDCHAR
STARTCHAR afii10025
ENCODING 1047
SWIDTH 375 0
DWIDTH 6 0
BBX 5 7 0 0
BITMAP
F0
18
18
70
18
18
F0
ENDCHAR
STARTCHAR afii10026
ENCODING 1048
SWIDTH 437 0
DWIDTH 7 0
BBX 6 7 0 0
BITMAP
C4
CC
DC
FC
EC
CC
8C
ENDCHAR
STARTCHAR afii10027
ENCODING 1049
SWIDTH 437 0
DWIDTH 7 0
BBX 6 10 0 0
BITMAP
48
30
00
C4
CC
DC
FC
EC
CC
8C
ENDCHAR
STARTCHAR afii10028
ENCODING 1050
SWIDTH 437 0
DWIDTH 7 0
BBX 6 7 0 0
BITMAP
CC
D8
F0
E0
F0
D8
CC
ENDCHAR
STARTCHAR afii10029
ENCODING 1051
SWIDTH 437 0
DWIDTH 7 0
BBX 6 7 0 0
BITMAP
7C
6C
6C
6C
6C
6C
CC
ENDCHAR
STARTCHAR afii10030
ENCODING 1052
SWIDTH 500 0
DWIDTH 8 0
BBX 7 7 0 0
BITMAP
82
C6
EE
FE
D6
C6
C6
ENDCHAR
STARTCHAR afii10031
ENCODING 1053
SWIDTH 375 0
DWIDTH 6 0
BBX 5 7 0 0
BITMAP
D8
D8
F8
D8
D8
D8
D8
ENDCHAR
STARTCHAR afii10032
ENCODING 1054
SWIDTH 437 0
DWIDTH 7 0
BBX 6 7 0 0
BITMAP
78
CC
CC
CC
CC
CC
78
ENDCHAR
STARTCHAR afii10033
ENCODING 1055
SWIDTH 375 0
DWIDTH 6 0
BBX 5 7 0 0
BITMAP
F8
D8
D8
D8
D8
D8
D8
ENDCHAR
STARTCHAR afii10034
ENCODING 1056
SWIDTH 375 0
DWIDTH 6 0
BBX 5 7 0 0
BITMAP
F0
D8
D8
D8
F0
C0
C0
ENDCHAR
STARTCHAR afii10035
ENCODING 1057
SWIDTH 375 0
DWIDTH 6 0
BBX 5 7 0 0
BITMAP
78
C0
C0
C0
C0
C0
78
ENDCHAR
STARTCHAR afii10036
ENCODING 1058
SWIDTH 437 0
DWIDTH 7 0
BBX 6 7 0 0
BITMAP
FC
30
30
30
30
30
30
ENDCHAR
STARTCHAR afii10037
ENCODING 1059
SWIDTH 375 0
DWIDTH 6 0
BBX 5 7 0 0
BITMAP
D8
D8
D8
D8
78
18
70
ENDCHAR
STARTCHAR afii10038
ENCODING 1060
SWIDTH 562 0
DWIDTH 9 0
BBX 8 7 0 0
BITMAP
18
7E
DB
DB
DB
7E
18
ENDCHAR
STARTCHAR afii10039
ENCODING 1061
SWIDTH 437 0
DWIDTH 7 0
BBX 6 7 0 0
BITMAP
CC
CC
78
30
78
CC
CC
ENDCHAR
STARTCHAR afii10040
ENCODING 1062
SWIDTH 437 0
DWIDTH 7 0
BBX 6 8 0 -1
BITMAP
D8
D8
D8
D8
D8
D8
FC
0C
ENDCHAR
STARTCHAR afii10041
ENCODING 1063
SWIDTH 375 0
DWIDTH 6 0
BBX 5 7 0 0
BITMAP
D8
D8
D8
D8
78
18
18
ENDCHAR
STARTCHAR afii10042
ENCODING 1064
SWIDTH 562 0
DWIDTH 9 0
BBX 8 7 0 0
BITMAP
DB
DB
DB
DB
DB
DB
FF
ENDCHAR
STARTCHAR afii10043
ENCODING 1065
SWIDTH 625 0
DWIDTH 10 0
BBX 9 8 0 -1
BITMAP
DB00
DB00
DB00
DB00
DB00
DB00
FF80
0180
ENDCHAR
STARTCHAR afii10044
ENCODING 1066
SWIDTH 437 0
DWIDTH 7 0
BBX 6 7 0 0
BITMAP
E0
60
78
6C
6C
6C
78
ENDCHAR
STARTCHAR afii10045
ENCODING 1067
SWIDTH 562 0
DWIDTH 9 0
BBX 8 7 0 0
BITMAP
C3
C3
F3
DB
DB
DB
F3
ENDCHAR
STARTCHAR afii10046
ENCODING 1068
SWIDTH 375 0
DWIDTH 6 0
BBX 5 7 0 0
BITMAP
C0
C0
F0
D8
D8
D8
F0
ENDCHAR
STARTCHAR afii10047
ENCODING 1069
SWIDTH 375 0
DWIDTH 6 0
BBX 5 7 0 0
BITMAP
F0
18
18
78
18
18
F0
ENDCHAR
STARTCHAR afii10048
ENCODING 1070
SWIDTH 625 0
DWIDTH 10 0
BBX 9 7 0 0
BITMAP
CF00
D980
D980
F980
D980
D980
CF00
ENDCHAR
STARTCHAR afii10049
ENCODING 1071
SWIDTH 375 0
DWIDTH 6 0
BBX 5 7 0 0
BITMAP
78
D8
D8
D8
78
58
D8
ENDCHAR
STARTCHAR acyrillic
ENCODING 1072
SWIDTH 375 0
DWIDTH 6 0
BBX 5 5 0 0
BITMAP
70
18
78
D8
78
ENDCHAR
STARTCHAR afii10066
ENCODING 1073
SWIDTH 375 0
DWIDTH 6 0
BBX 5 7 0 0
BITMAP
70
C0
F0
D8
D8
D8
70
ENDCHAR
STARTCHAR afii10067
ENCODING 1074
SWIDTH 375 0
DWIDTH 6 0
BBX 5 5 0 0
BITMAP
F0
D8
F0
D8
F0
ENDCHAR
STARTCHAR afii10068
ENCODING 1075
SWIDTH 375 0
DWIDTH 6 0
BBX 5 5 0 0
BITMAP
F8
C0
C0
C0
C0
ENDCHAR
STARTCHAR afii10069
ENCODING 1076
SWIDTH 437 0
DWIDTH 7 0
BBX 7 6 0 -1
BITMAP
7C
6C
CC
CC
FE
C6
ENDCHAR
STARTCHAR afii10070
ENCODING 1077
SWIDTH 375 0
DWIDTH 6 0
BBX 5 5 0 0
BITMAP
70
D8
F8
C0
78
ENDCHAR
STARTCHAR afii10072
ENCODING 1078
SWIDTH 562 0
DWIDTH 9 0
BBX 8 5 0 0
BITMAP
DB
7E
3C
7E
DB
ENDCHAR
STARTCHAR afii10073
ENCODING 1079
SWIDTH 375 0
DWIDTH 6 0
BBX 5 5 0 0
BITMAP
F0
18
70
18
F0
ENDCHAR
STARTCHAR afii10074
ENCODING 1080
SWIDTH 375 0
DWIDTH 6 0
BBX 5 5 0 0
BITMAP
D8
D8
D8
D8
78
ENDCHAR
STARTCHAR afii10075
ENCODING 1081
SWIDTH 375 0
DWIDTH 6 0
BBX 5 5 0 0
BITMAP
D8
D8
D8
D8
78
ENDCHAR
STARTCHAR afii10076
ENCODING 1082
SWIDTH 375 0
DWIDTH 6 0
BBX 5 5 0 0
BITMAP
D8
F0
E0
F0
D8
ENDCHAR
STARTCHAR afii10077
ENCODING 1083
SWIDTH 437 0
DWIDTH 7 0
BBX 6 5 0 0
BITMAP
7C
6C
6C
6C
CC
ENDCHAR
STARTCHAR afii10078
ENCODING 1084
SWIDTH 500 0
DWIDTH 8 0
BBX 7 5 0 0
BITMAP
82
C6
EE
FE
D6
ENDCHAR
STARTCHAR afii10079
ENCODING 1085
SWIDTH 375 0
DWIDTH 6 0
BBX 5 5 0 0
BITMAP
D8
D8
F8
D8
D8
ENDCHAR
STARTCHAR afii10080
ENCODING 1086
SWIDTH 375 0
DWIDTH 6 0
BBX 5 5 0 0
BITMAP
70
D8
D8
D8
70
ENDCHAR
STARTCHAR afii10081
ENCODING 1087
SWIDTH 375 0
DWIDTH 6 0
BBX 5 5 0 0
BITMAP
F8
D8
D8
D8
D8
ENDCHAR
STARTCHAR afii10082
ENCODING 1088
SWIDTH 375 0
DWIDTH 6 0
BBX 5 6 0 -1
BITMAP
F0
D8
D8
F0
C0
C0
ENDCHAR
STARTCHAR afii10083
ENCODING 1089
SWIDTH 312 0
DWIDTH 5 0
BBX 4 5 0 0
BITMAP
70
C0
C0
C0
70
ENDCHAR
STARTCHAR afii10084
ENCODING 1090
SWIDTH 312 0
DWIDTH 5 0
BBX 4 5 0 0
BITMAP
F0
60
60
60
60
ENDCHAR
STARTCHAR afii10085
ENCODING 1091
SWIDTH 375 0
DWIDTH 6 0
BBX 5 6 0 -1
BITMAP
D8
D8
D8
78
18
70
ENDCHAR
STARTCHAR afii10086
ENCODING 1092
SWIDTH 562 0
DWIDTH 9 0
BBX 8 7 0 -1
BITMAP
18
7E
DB
DB
DB
7E
18
ENDCHAR
STARTCHAR afii10087
ENCODING 1093
SWIDTH 375 0
DWIDTH 6 0
BBX 5 5 0 0
BITMAP
D8
D8
70
D8
D8
ENDCHAR
STARTCHAR afii10088
ENCODING 1094
SWIDTH 375 0
DWIDTH 6 0
BBX 6 6 0 -1
BITMAP
D8
D8
D8
D8
FC
0C
ENDCHAR
STARTCHAR afii10089
ENCODING 1095
SWIDTH 375 0
DWIDTH 6 0
BBX 5 5 0 0
BITMAP
D8
D8
D8
78
18
ENDCHAR
STARTCHAR afii10090
ENCODING 1096
SWIDTH 562 0
DWIDTH 9 0
BBX 8 5 0 0
BITMAP
DB
DB
DB
DB
FF
ENDCHAR
STARTCHAR afii10091
ENCODING 1097
SWIDTH 562 0
DWIDTH 9 0
BBX 9 6 0 -1
BITMAP
DB00
DB00
DB00
DB00
FF80
0180
ENDCHAR
STARTCHAR afii10092
ENCODING 1098
SWIDTH 437 0
DWIDTH 7 0
BBX 6 5 0 0
BITMAP
E0
78
6C
6C
78
ENDCHAR
STARTCHAR afii10093
ENCODING 1099
SWIDTH 562 0
DWIDTH 9 0
BBX 8 5 0 0
BITMAP
C3
F3
DB
DB
F3
ENDCHAR
STARTCHAR afii10094
ENCODING 1100
SWIDTH 375 0
DWIDTH 6 0
BBX 5 5 0 0
BITMAP
C0
F0
D8
D8
F0
ENDCHAR
STARTCHAR afii10095
ENCODING 1101
SWIDTH 375 0
DWIDTH 6 0
BBX 5 5 0 0
BITMAP
F0
18
78
18
F0
ENDCHAR
STARTCHAR afii10096
ENCODING 1102
SWIDTH 562 0
DWIDTH 9 0
BBX 8 5 0 0
BITMAP
CE
DB
FB
DB
CE
ENDCHAR
STARTCHAR afii10097
ENCODING 1103
SWIDTH 375 0
DWIDTH 6 0
BBX 5 5 0 0
BITMAP
78
D8
D8
78
D8
ENDCHAR
STARTCHAR afii10071
ENCODING 1105
SWIDTH 375 0
DWIDTH 6 0
BBX 5 7 0 0
BITMAP
50
00
70
D8
F8
C0
78
ENDCHAR
STARTCHAR afii10099
ENCODING 1106
SWIDTH 437 0
DWIDTH 7 0
BBX 6 8 0 -1
BITMAP
60
F0
60
78
6C
6C
0C
18
ENDCHAR
STARTCHAR afii10100
ENCODING 1107
SWIDTH 375 0
DWIDTH 6 0
BBX 5 8 0 0
BITMAP
10
20
00
F8
C0
C0
C0
C0
ENDCHAR
STARTCHAR afii10101
ENCODING 1108
SWIDTH 375 0
DWIDTH 6 0
BBX 5 5 0 0
BITMAP
78
C0
F0
C0
78
ENDCHAR
STARTCHAR afii10102
ENCODING 1109
SWIDTH 375 0
DWIDTH 6 0
BBX 5 5 0 0
BITMAP
78
C0
70
18
F0
ENDCHAR
STARTCHAR afii10103
ENCODING 1110
SWIDTH 187 0
DWIDTH 3 0
BBX 2 7 0 0
BITMAP
C0
00
C0
C0
C0
C0
C0
ENDCHAR
STARTCHAR afii10104
ENCODING 1111
SWIDTH 250 0
DWIDTH 4 0
BBX 4 7 -1 0
BITMAP
90
00
60
60
60
60
60
ENDCHAR
STARTCHAR afii10105
ENCODING 1112
SWIDTH 250 0
DWIDTH 4 0
BBX 3 8 0 -1
BITMAP
60
00
60
60
60
60
60
C0
ENDCHAR
STARTCHAR afii10106
ENCODING 1113
SWIDTH 625 0
DWIDTH 10 0
BBX 9 5 0 0
BITMAP
7C00
6F00
6D80
6D80
CF00
ENDCHAR
STARTCHAR afii10107
ENCODING 1114
SWIDTH 562 0
DWIDTH 9 0
BBX 8 5 0 0
BITMAP
D8
DE
FB
DB
DE
ENDCHAR
STARTCHAR afii10108
ENCODING 1115
SWIDTH 437 0
DWIDTH 7 0
BBX 6 7 0 0
BITMAP
60
F0
60
78
6C
6C
6C
ENDCHAR
STARTCHAR afii10109
ENCODING 1116
SWIDTH 375 0
DWIDTH 6 0
BBX 5 8 0 0
BITMAP
10
20
00
D8
F0
E0
F0
D8
ENDCHAR
STARTCHAR afii10110
ENCODING 1118
SWIDTH 375 0
DWIDTH 6 0
BBX 5 9 0 -1
BITMAP
88
70
00
D8
D8
D8
78
18
70
ENDCHAR
STARTCHAR afii10193
ENCODING 1119
SWIDTH 375 0
DWIDTH 6 0
BBX 5 6 0 -1
BITMAP
D8
D8
D8
D8
F8
20
ENDCHAR
STARTCHAR afii10050
ENCODING 1168
SWIDTH 375 0
DWIDTH 6 0
BBX 5 8 0 0
BITMAP
08
F8
C0
C0
C0
C0
C0
C0
ENDCHAR
STARTCHAR afii10098
ENCODING 1169
SWIDTH 375 0
DWIDTH 6 0
BBX 5 6 0 0
BITMAP
08
F8
C0
C0
C0
C0
ENDCHAR
STARTCHAR Wgrave
ENCODING 7808
SWIDTH 500 0
DWIDTH 8 0
BBX 7 10 0 0
BITMAP
20
10
00
C6
C6
D6
FE
7C
7C
6C
ENDCHAR
STARTCHAR wgrave
ENCODING 7809
SWIDTH 500 0
DWIDTH 8 0
BBX 7 8 0 0
BITMAP
20
10
00
C6
D6
D6
7C
6C
ENDCHAR
STARTCHAR Wacute
ENCODING 7810
SWIDTH 500 0
DWIDTH 8 0
BBX 7 10 0 0
BITMAP
08
10
00
C6
C6
D6
FE
7C
7C
6C
ENDCHAR
STARTCHAR wacute
ENCODING 7811
SWIDTH 500 0
DWIDTH 8 0
BBX 7 8 0 0
BITMAP
08
10
00
C6
D6
D6
7C
6C
ENDCHAR
STARTCHAR Wdieresis
ENCODING 7812
SWIDTH 500 0
DWIDTH 8 0
BBX 7 9 0 0
BITMAP
28
00
C6
C6
D6
FE
7C
7C
6C
ENDCHAR
STARTCHAR wdieresis
ENCODING 7813
SWIDTH 500 0
DWIDTH 8 0
BBX 7 7 0 0
BITMAP
28
00
C6
D6
D6
7C
6C
ENDCHAR
STARTCHAR Ygrave
ENCODING 7922
SWIDTH 437 0
DWIDTH 7 0
BBX 6 10 0 0
BITMAP
20
10
00
CC
CC
78
30
30
30
30
ENDCHAR
STARTCHAR ygrave
ENCODING 7923
SWIDTH 375 0
DWIDTH 6 0
BBX 5 9 0 -1
BITMAP
40
20
00
D8
D8
D8
78
18
70
ENDCHAR
STARTCHAR hyphentwo
ENCODING 8208
SWIDTH 312 0
DWIDTH 5 0
BBX 4 1 0 3
BITMAP
F0
ENDCHAR
STARTCHAR endash
ENCODING 8211
SWIDTH 437 0
DWIDTH 7 0
BBX 6 1 0 3
BITMAP
FC
ENDCHAR
STARTCHAR emdash
ENCODING 8212
SWIDTH 562 0
DWIDTH 9 0
BBX 8 1 0 3
BITMAP
FF
ENDCHAR
STARTCHAR afii00208
ENCODING 8213
SWIDTH 500 0
DWIDTH 8 0
BBX 7 1 0 3
BITMAP
FE
ENDCHAR
STARTCHAR dbllowline
ENCODING 8215
SWIDTH 437 0
DWIDTH 7 0
BBX 6 3 0 -1
BITMAP
FC
00
FC
ENDCHAR
STARTCHAR quoteleft
ENCODING 8216
SWIDTH 187 0
DWIDTH 3 0
BBX 2 2 0 5
BITMAP
80
40
ENDCHAR
STARTCHAR quoteright
ENCODING 8217
SWIDTH 187 0
DWIDTH 3 0
BBX 2 2 0 5
BITMAP
40
80
ENDCHAR
STARTCHAR quotesinglbase
ENCODING 8218
SWIDTH 187 0
DWIDTH 3 0
BBX 2 2 0 0
BITMAP
40
80
ENDCHAR
STARTCHAR quoteleftreversed
ENCODING 8219
SWIDTH 187 0
DWIDTH 3 0
BBX 2 2 0 5
BITMAP
80
40
ENDCHAR
STARTCHAR quotedblleft
ENCODING 8220
SWIDTH 375 0
DWIDTH 6 0
BBX 5 2 0 5
BITMAP
90
48
ENDCHAR
STARTCHAR quotedblright
ENCODING 8221
SWIDTH 375 0
DWIDTH 6 0
BBX 5 2 0 5
BITMAP
48
90
ENDCHAR
STARTCHAR quotedblbase
ENCODING 8222
SWIDTH 375 0
DWIDTH 6 0
BBX 5 2 0 0
BITMAP
48
90
ENDCHAR
STARTCHAR dagger
ENCODING 8224
SWIDTH 312 0
DWIDTH 5 0
BBX 4 7 0 0
BITMAP
60
60
F0
60
60
60
60
ENDCHAR
STARTCHAR daggerdbl
ENCODING 8225
SWIDTH 312 0
DWIDTH 5 0
BBX 4 7 0 0
BITMAP
60
60
F0
60
F0
60
60
ENDCHAR
STARTCHAR bullet
ENCODING 8226
SWIDTH 312 0
DWIDTH 5 0
BBX 4 4 0 1
BITMAP
60
F0
F0
60
ENDCHAR
STARTCHAR ellipsis
ENCODING 8230
SWIDTH 562 0
DWIDTH 9 0
BBX 8 2 0 0
BITMAP
DB
DB
ENDCHAR
STARTCHAR perthousand
ENCODING 8240
SWIDTH 625 0
DWIDTH 10 0
BBX 9 7 0 0
BITMAP
C800
D800
1000
3000
2000
6D80
4D80
ENDCHAR
STARTCHAR minute
ENCODING 8242
SWIDTH 250 0
DWIDTH 4 0
BBX 3 2 0 5
BITMAP
60
C0
ENDCHAR
STARTCHAR second
ENCODING 8243
SWIDTH 437 0
DWIDTH 7 0
BBX 6 2 0 5
BITMAP
6C
D8
ENDCHAR
STARTCHAR guilsinglleft
ENCODING 8249
SWIDTH 312 0
DWIDTH 5 0
BBX 4 5 0 1
BITMAP
30
60
C0
60
30
ENDCHAR
STARTCHAR guilsinglright
ENCODING 8250
SWIDTH 312 0
DWIDTH 5 0
BBX 4 5 0 1
BITMAP
C0
60
30
60
C0
ENDCHAR
STARTCHAR exclamdbl
ENCODING 8252
SWIDTH 375 0
DWIDTH 6 0
BBX 5 7 0 0
BITMAP
D8
D8
D8
D8
D8
00
D8
ENDCHAR
STARTCHAR overline
ENCODING 8254
SWIDTH 437 0
DWIDTH 7 0
BBX 6 1 0 6
BITMAP
FC
ENDCHAR
STARTCHAR fraction
ENCODING 8260
SWIDTH 312 0
DWIDTH 5 0
BBX 4 7 0 0
BITMAP
10
30
20
60
40
C0
80
ENDCHAR
STARTCHAR zerosuperior
ENCODING 8304
SWIDTH 375 0
DWIDTH 6 0
BBX 5 5 0 2
BITMAP
70
D8
D8
D8
70
ENDCHAR
STARTCHAR foursuperior
ENCODING 8308
SWIDTH 375 0
DWIDTH 6 0
BBX 5 5 0 2
BITMAP
78
D8
D8
F8
18
ENDCHAR
STARTCHAR fivesuperior
ENCODING 8309
SWIDTH 375 0
DWIDTH 6 0
BBX 5 5 0 2
BITMAP
F8
80
F0
18
F0
ENDCHAR
STARTCHAR sixsuperior
ENCODING 8310
SWIDTH 375 0
DWIDTH 6 0
BBX 5 5 0 2
BITMAP
78
C0
F0
D8
70
ENDCHAR
STARTCHAR sevensuperior
ENCODING 8311
SWIDTH 375 0
DWIDTH 6 0
BBX 5 5 0 2
BITMAP
F8
18
30
60
60
ENDCHAR
STARTCHAR eightsuperior
ENCODING 8312
SWIDTH 375 0
DWIDTH 6 0
BBX 5 5 0 2
BITMAP
70
D8
70
D8
70
ENDCHAR
STARTCHAR ninesuperior
ENCODING 8313
SWIDTH 375 0
DWIDTH 6 0
BBX 5 5 0 2
BITMAP
70
D8
78
18
F0
ENDCHAR
STARTCHAR nsuperior
ENCODING 8319
SWIDTH 375 0
DWIDTH 6 0
BBX 5 5 0 2
BITMAP
F0
D8
D8
D8
D8
ENDCHAR
STARTCHAR zeroinferior
ENCODING 8320
SWIDTH 375 0
DWIDTH 6 0
BBX 5 5 0 0
BITMAP
70
D8
D8
D8
70
ENDCHAR
STARTCHAR oneinferior
ENCODING 8321
SWIDTH 250 0
DWIDTH 4 0
BBX 3 5 0 0
BITMAP
60
E0
60
60
60
ENDCHAR
STARTCHAR twoinferior
ENCODING 8322
SWIDTH 375 0
DWIDTH 6 0
BBX 5 5 0 0
BITMAP
F0
18
70
C0
F8
ENDCHAR
STARTCHAR threeinferior
ENCODING 8323
SWIDTH 375 0
DWIDTH 6 0
BBX 5 5 0 0
BITMAP
F0
18
70
18
F0
ENDCHAR
STARTCHAR fourinferior
ENCODING 8324
SWIDTH 375 0
DWIDTH 6 0
BBX 5 5 0 0
BITMAP
78
D8
D8
F8
18
ENDCHAR
STARTCHAR fiveinferior
ENCODING 8325
SWIDTH 375 0
DWIDTH 6 0
BBX 5 5 0 0
BITMAP
F8
80
F0
18
F0
ENDCHAR
STARTCHAR sixinferior
ENCODING 8326
SWIDTH 375 0
DWIDTH 6 0
BBX 5 5 0 0
BITMAP
78
C0
F0
D8
70
ENDCHAR
STARTCHAR seveninferior
ENCODING 8327
SWIDTH 375 0
DWIDTH 6 0
BBX 5 5 0 0
BITMAP
F8
18
30
60
60
ENDCHAR
STARTCHAR eightinferior
ENCODING 8328
SWIDTH 375 0
DWIDTH 6 0
BBX 5 5 0 0
BITMAP
70
D8
70
D8
70
ENDCHAR
STARTCHAR nineinferior
ENCODING 8329
SWIDTH 375 0
DWIDTH 6 0
BBX 5 5 0 0
BITMAP
70
D8
78
18
F0
ENDCHAR
STARTCHAR franc
ENCODING 8355
SWIDTH 437 0
DWIDTH 7 0
BBX 6 7 0 0
BITMAP
7C
60
78
60
F0
60
60
ENDCHAR
STARTCHAR afii08941
ENCODING 8356
SWIDTH 375 0
DWIDTH 6 0
BBX 5 7 0 0
BITMAP
38
60
F0
60
F0
60
F8
ENDCHAR
STARTCHAR peseta
ENCODING 8359
SWIDTH 812 0
DWIDTH 13 0
BBX 12 7 0 0
BITMAP
F300
DB00
DB80
DB00
F300
C330
C1B0
ENDCHAR
STARTCHAR Euro
ENCODING 8364
SWIDTH 437 0
DWIDTH 7 0
BBX 6 6 0 0
BITMAP
38
64
F8
F0
44
38
ENDCHAR
STARTCHAR uni20B8
ENCODING 8376
SWIDTH 437 0
DWIDTH 7 0
BBX 6 7 0 0
BITMAP
FC
00
FC
30
30
30
30
ENDCHAR
STARTCHAR uni20B9
ENCODING 8377
SWIDTH 437 0
DWIDTH 7 0
BBX 6 7 0 0
BITMAP
FC
18
FC
C0
60
30
18
ENDCHAR
STARTCHAR uni20BA
ENCODING 8378
SWIDTH 437 0
DWIDTH 7 0
BBX 6 7 0 0
BITMAP
60
F0
60
F0
60
6C
78
ENDCHAR
STARTCHAR uni20BB
ENCODING 8379
SWIDTH 500 0
DWIDTH 8 0
BBX 7 7 0 0
BITMAP
70
DC
76
36
3E
30
1E
ENDCHAR
STARTCHAR uni20BC
ENCODING 8380
SWIDTH 562 0
DWIDTH 9 0
BBX 8 7 0 0
BITMAP
18
18
7E
DB
DB
DB
DB
ENDCHAR
STARTCHAR uni20BD
ENCODING 8381
SWIDTH 437 0
DWIDTH 7 0
BBX 6 7 0 0
BITMAP
78
6C
6C
78
60
F0
60
ENDCHAR
STARTCHAR uni20BE
ENCODING 8382
SWIDTH 500 0
DWIDTH 8 0
BBX 7 8 0 0
BITMAP
14
7E
D4
C0
C0
C0
60
FC
ENDCHAR
STARTCHAR afii61248
ENCODING 8453
SWIDTH 750 0
DWIDTH 12 0
BBX 11 7 0 0
BITMAP
7200
C600
C5C0
CF60
7B60
1B60
11C0
ENDCHAR
STARTCHAR afii61289
ENCODING 8467
SWIDTH 375 0
DWIDTH 6 0
BBX 5 7 0 0
BITMAP
30
68
68
F0
60
68
30
ENDCHAR
STARTCHAR afii61352
ENCODING 8470
SWIDTH 812 0
DWIDTH 13 0
BBX 12 7 0 0
BITMAP
8CE0
CDB0
EDB0
FDB0
DCE0
CC00
C5F0
ENDCHAR
STARTCHAR uni2120
ENCODING 8480
SWIDTH 750 0
DWIDTH 12 0
BBX 11 5 0 2
BITMAP
7A20
C360
73E0
1B60
F360
ENDCHAR
STARTCHAR trademark
ENCODING 8482
SWIDTH 687 0
DWIDTH 11 0
BBX 10 5 0 2
BITMAP
F440
66C0
67C0
66C0
66C0
ENDCHAR
STARTCHAR Ohm
ENCODING 8486
SWIDTH 375 0
DWIDTH 6 0
BBX 5 7 0 0
BITMAP
70
D8
D8
D8
D8
50
D8
ENDCHAR
STARTCHAR estimated
ENCODING 8494
SWIDTH 500 0
DWIDTH 8 0
BBX 7 7 0 0
BITMAP
7C
C6
C6
FE
C0
C0
7C
ENDCHAR
STARTCHAR oneeighth
ENCODING 8539
SWIDTH 750 0
DWIDTH 12 0
BBX 11 7 0 0
BITMAP
6200
E600
65C0
6F60
69C0
1B60
11C0
ENDCHAR
STARTCHAR threeeighths
ENCODING 8540
SWIDTH 812 0
DWIDTH 13 0
BBX 12 7 0 0
BITMAP
F100
1B00
72E0
1FB0
F4E0
0DB0
08E0
ENDCHAR
STARTCHAR fiveeighths
ENCODING 8541
SWIDTH 812 0
DWIDTH 13 0
BBX 12 7 0 0
BITMAP
F900
8300
F2E0
1FB0
F4E0
0DB0
08E0
ENDCHAR
STARTCHAR seveneighths
ENCODING 8542
SWIDTH 750 0
DWIDTH 12 0
BBX 11 7 0 0
BITMAP
FA00
1E00
35C0
6F60
69C0
1B60
11C0
ENDCHAR
STARTCHAR partialdiff
ENCODING 8706
SWIDTH 375 0
DWIDTH 6 0
BBX 5 7 0 0
BITMAP
70
18
18
78
D8
D8
70
ENDCHAR
STARTCHAR Delta
ENCODING 8710
SWIDTH 437 0
DWIDTH 7 0
BBX 6 7 0 0
BITMAP
30
30
78
78
CC
CC
FC
ENDCHAR
STARTCHAR product
ENCODING 8719
SWIDTH 500 0
DWIDTH 8 0
BBX 7 7 0 0
BITMAP
FE
6C
6C
6C
6C
6C
6C
ENDCHAR
STARTCHAR summation
ENCODING 8721
SWIDTH 500 0
DWIDTH 8 0
BBX 7 7 0 0
BITMAP
FE
60
30
18
30
60
FE
ENDCHAR
STARTCHAR minus
ENCODING 8722
SWIDTH 437 0
DWIDTH 7 0
BBX 6 1 0 3
BITMAP
FC
ENDCHAR
STARTCHAR divisionslash
ENCODING 8725
SWIDTH 312 0
DWIDTH 5 0
BBX 4 7 0 0
BITMAP
10
30
20
60
40
C0
80
ENDCHAR
STARTCHAR bulletoperator
ENCODING 8729
SWIDTH 125 0
DWIDTH 2 0
BBX 1 1 0 3
BITMAP
80
ENDCHAR
STARTCHAR radical
ENCODING 8730
SWIDTH 625 0
DWIDTH 10 0
BBX 9 7 0 0
BITMAP
0780
0600
0C00
EC00
7800
7800
3000
ENDCHAR
STARTCHAR infinity
ENCODING 8734
SWIDTH 500 0
DWIDTH 8 0
BBX 7 3 0 2
BITMAP
6C
D6
6C
ENDCHAR
STARTCHAR integral
ENCODING 8747
SWIDTH 312 0
DWIDTH 5 0
BBX 4 8 0 -1
BITMAP
30
60
60
60
60
60
60
C0
ENDCHAR
STARTCHAR approxequal
ENCODING 8776
SWIDTH 375 0
DWIDTH 6 0
BBX 5 5 0 1
BITMAP
68
B0
00
68
B0
ENDCHAR
STARTCHAR notequal
ENCODING 8800
SWIDTH 375 0
DWIDTH 6 0
BBX 5 5 0 1
BITMAP
10
F8
20
F8
40
ENDCHAR
STARTCHAR lessequal
ENCODING 8804
SWIDTH 375 0
DWIDTH 6 0
BBX 5 7 0 0
BITMAP
30
60
C0
60
30
00
F8
ENDCHAR
STARTCHAR greaterequal
ENCODING 8805
SWIDTH 375 0
DWIDTH 6 0
BBX 5 7 0 0
BITMAP
60
30
18
30
60
00
F8
ENDCHAR
STARTCHAR uni22F2
ENCODING 8946
SWIDTH 500 0
DWIDTH 8 0
BBX 7 7 0 0
BITMAP
3E
60
60
FC
60
60
3E
ENDCHAR
STARTCHAR SF100000
ENCODING 9472
SWIDTH 500 0
DWIDTH 8 0
BBX 8 2 0 2
BITMAP
FF
FF
ENDCHAR
STARTCHAR SF110000
ENCODING 9474
SWIDTH 500 0
DWIDTH 8 0
BBX 2 8 3 -1
BITMAP
C0
C0
C0
C0
C0
C0
C0
C0
ENDCHAR
STARTCHAR SF010000
ENCODING 9484
SWIDTH 500 0
DWIDTH 8 0
BBX 5 5 3 -1
BITMAP
F8
F8
C0
C0
C0
ENDCHAR
STARTCHAR SF030000
ENCODING 9488
SWIDTH 500 0
DWIDTH 8 0
BBX 5 5 0 -1
BITMAP
F8
F8
18
18
18
ENDCHAR
STARTCHAR SF020000
ENCODING 9492
SWIDTH 500 0
DWIDTH 8 0
BBX 5 5 3 2
BITMAP
C0
C0
C0
F8
F8
ENDCHAR
STARTCHAR SF040000
ENCODING 9496
SWIDTH 500 0
DWIDTH 8 0
BBX 5 5 0 2
BITMAP
18
18
18
F8
F8
ENDCHAR
STARTCHAR H22073
ENCODING 9633
SWIDTH 500 0
DWIDTH 8 0
BBX 7 7 0 0
BITMAP
FE
82
82
82
82
82
FE
ENDCHAR
STARTCHAR blacksmallsquare
ENCODING 9642
SWIDTH 375 0
DWIDTH 6 0
BBX 5 5 0 1
BITMAP
F8
F8
F8
F8
F8
ENDCHAR
STARTCHAR H18551
ENCODING 9643
SWIDTH 375 0
DWIDTH 6 0
BBX 5 5 0 1
BITMAP
F8
88
88
88
F8
ENDCHAR
STARTCHAR lozenge
ENCODING 9674
SWIDTH 500 0
DWIDTH 8 0
BBX 7 7 0 0
BITMAP
10
28
44
82
44
28
10
ENDCHAR
STARTCHAR blackcircle
ENCODING 9679
SWIDTH 375 0
DWIDTH 6 0
BBX 5 5 0 1
BITMAP
70
F8
F8
F8
70
ENDCHAR
STARTCHAR openbullet
ENCODING 9702
SWIDTH 375 0
DWIDTH 6 0
BBX 5 5 0 1
BITMAP
70
88
88
88
70
ENDCHAR
STARTCHAR musicalnote
ENCODING 9834
SWIDTH 375 0
DWIDTH 6 0
BBX 5 7 0 0
BITMAP
30
38
28
20
60
E0
40
ENDCHAR
STARTCHAR ideographicspace
ENCODING 12288
SWIDTH 437 0
DWIDTH 7 0
BBX 1 1 0 0
BITMAP
00
ENDCHAR
STARTCHAR uniF000
ENCODING 61440
SWIDTH 375 0
DWIDTH 6 0
BBX 5 7 0 0
BITMAP
10
20
70
F8
E0
F8
70
ENDCHAR
STARTCHAR uniF001
ENCODING 61441
SWIDTH 437 0
DWIDTH 7 0
BBX 6 7 0 0
BITMAP
6C
C0
FC
CC
CC
CC
CC
ENDCHAR
STARTCHAR uniF002
ENCODING 61442
SWIDTH 437 0
DWIDTH 7 0
BBX 6 7 0 0
BITMAP
7C
CC
EC
CC
CC
CC
CC
ENDCHAR
STARTCHAR apple
ENCODING 63743
SWIDTH 375 0
DWIDTH 6 0
BBX 5 7 0 0
BITMAP
10
20
70
F8
E0
F8
70
ENDCHAR
STARTCHAR fi
ENCODING 64257
SWIDTH 437 0
DWIDTH 7 0
BBX 6 7 0 0
BITMAP
6C
C0
FC
CC
CC
CC
CC
ENDCHAR
STARTCHAR fl
ENCODING 64258
SWIDTH 437 0
DWIDTH 7 0
BBX 6 7 0 0
BITMAP
7C
CC
EC
CC
CC
CC
CC
ENDCHAR
STARTCHAR .notdef
ENCODING -1
SWIDTH 500 0
DWIDTH 8 0
BBX 7 7 0 0
BITMAP
FE
82
82
82
82
82
FE
ENDCHAR
STARTCHAR .null
ENCODING -1
SWIDTH 0 0
DWIDTH 0 0
BBX 1 1 0 0
BITMAP
00
ENDCHAR
STARTCHAR nonmarkingreturn
ENCODING -1
SWIDTH 333 0
DWIDTH 5 0
BBX 1 1 0 0
BITMAP
00
ENDCHAR
ENDFONT
